<ttFont>
<head>
    <!-- Most of this table will be recalculated by the compiler -->
    <tableVersion value="1.0"/>
    <fontRevision value="2.0"/>
    <checkSumAdjustment value="0x6142072e"/>
    <magicNumber value="0x5f0f3cf5"/>
    <flags value="00000000 00000011"/>
    <unitsPerEm value="750"/>
    <created value="Tue Mar 17 02:09:41 2020"/>
    <modified value="Thu Aug 19 18:39:56 2021"/>
    <xMin value="-242"/>
    <yMin value="-250"/>
    <xMax value="750"/>
    <yMax value="561"/>
    <macStyle value="00000000 00000000"/>
    <lowestRecPPEM value="3"/>
    <fontDirectionHint value="2"/>
    <indexToLocFormat value="0"/>
    <glyphDataFormat value="0"/>
  </head>
          <CharString index="0">
            vlineto
            -101 callsubr
            return
          </CharString>
          <CharString index="1">
            hlineto
            41 70 rlineto
            return
          </CharString>
          <CharString index="2">
            -88 callgsubr
            endchar
          </CharString>
          <CharString index="3">
            rmoveto
            -96 callsubr
            return
          </CharString>
          <CharString index="4">
            -110 rmoveto
            return
          </CharString>
          <CharString index="5">
            hmoveto
            140 70 return
          </CharString>
          <CharString index="6">
            -80 -20 rlineto
            return
          </CharString>
          <CharString index="7">
            -63 callgsubr
            endchar
          </CharString>
          <CharString index="8">
            0 vmoveto
            539 hlineto
            -102 callgsubr
            219 -42 callgsubr
            -380 vlineto
            -93 callgsubr
            return
          </CharString>
          <CharString index="9">
            -58 callsubr
            210 return
          </CharString>
          <CharString index="10">
            hlineto
            -93 callgsubr
            return
          </CharString>
          <CharString index="11">
            47 79 -17 10 -47 -79 rlineto
            return
          </CharString>
          <CharString index="12">
            -101 callsubr
            -360 return
          </CharString>
          <CharString index="13">
            hlineto
            -32 -22 3 23 -23 hvcurveto
            -11 callgsubr
            -85 57 -19 74 -1 vhcurveto
            endchar
          </CharString>
          <CharString index="14">
            70 -95 callgsubr
          </CharString>
          <CharString index="15">
            -20 vlineto
            100 hmoveto
            -59 callsubr
            endchar
          </CharString>
          <CharString index="16">
            131 -103 callsubr
            return
          </CharString>
          <CharString index="17">
            -70 70 70 vlineto
            endchar
          </CharString>
          <CharString index="18">
            -107 callsubr
            -220 vlineto
            -107 callgsubr
            170 -107 callsubr
            -190 vlineto
            -107 callgsubr
            140 -107 callsubr
            return
          </CharString>
          <CharString index="19">
            -107 callsubr
            -180 vlineto
            -8 callgsubr
            vlineto
            -107 callgsubr
            160 -107 callsubr
            return
          </CharString>
          <CharString index="20">
            vlineto
            -80 -20 rlineto
            -180 vlineto
            -107 callgsubr
            130 -107 callsubr
            -150 vlineto
            -107 callgsubr
            100 -107 callsubr
            return
          </CharString>
          <CharString index="21">
            hlineto
            -58 -61 65 75 -61 hvcurveto
            -43 -70 19 -28 28 -29 15 -13 rlinecurve
            return
          </CharString>
          <CharString index="22">
            100 -110 rmoveto
            65 35 30 60 hvcurveto
            return
          </CharString>
          <CharString index="23">
            -37 callgsubr
            -54 callsubr
            endchar
          </CharString>
          <CharString index="24">
            -20 -102 callsubr
            hlineto
            -107 callgsubr
            return
          </CharString>
          <CharString index="25">
            -50 -250 rmoveto
            212 -97 callgsubr
            return
          </CharString>
          <CharString index="26">
            -70 -69 callgsubr
            return
          </CharString>
          <CharString index="27">
            hlineto
            -103 callgsubr
            return
          </CharString>
          <CharString index="28">
            100 hmoveto
            65 35 30 60 return
          </CharString>
          <CharString index="29">
            -40 -40 5 35 -20 return
          </CharString>
          <CharString index="30">
            vlineto
            -35 -20 -40 return
          </CharString>
          <CharString index="31">
            -60 45 -30 55 return
          </CharString>
          <CharString index="32">
            -48 callsubr
            endchar
          </CharString>
          <CharString index="33">
            hhcurveto
            -96 callgsubr
            -11 2 -10 4 -9 hvcurveto
            -4 -9 -2 -10 -11 vvcurveto
            -50 callsubr
            vhcurveto
            -22 hlineto
            120 60 rmoveto
            -89 callgsubr
            -60 -95 callgsubr
          </CharString>
          <CharString index="34">
            0 vmoveto
            536 -55 callgsubr
            -390 -97 callsubr
            return
          </CharString>
          <CharString index="35">
            -71 callsubr
            endchar
          </CharString>
          <CharString index="36">
            80 140 rmoveto
            420 vlineto
            -101 callsubr
            -410 vlineto
            -88 5 74 -42 79 hhcurveto
            60 63 24 46 39 hvcurveto
            -12 -28 -44 -10 -43 hhcurveto
            -64 -61 22 70 hvcurveto
            return
          </CharString>
          <CharString index="37">
            rmoveto
            142 hlineto
            4 2 0 6 44 -21 9 -14 hvcurveto
            -63 56 hlineto
            -25 -6 rlineto
            -88 -13 vlineto
            38 hmoveto
            14 59 vlineto
            8 6 -6 -8 hvcurveto
            -73 hlineto
            endchar
          </CharString>
          <CharString index="38">
            17 callgsubr
            210 -70 -67 callgsubr
            vlineto
            endchar
          </CharString>
          <CharString index="39">
            17 callgsubr
            70 -120 70 120 70 vlineto
            endchar
          </CharString>
          <CharString index="40">
            77 -19 111 -93 -56 -45 -40 -50 -98 callgsubr
            10 10 1 3 10 return
          </CharString>
          <CharString index="41">
            -366 -52 callsubr
            -430 436 vlineto
            -103 callgsubr
            return
          </CharString>
          <CharString index="42">
            245 18 callgsubr
          </CharString>
          <CharString index="43">
            hlineto
            27 70 rlineto
            -3 hlineto
            -80 -140 rlineto
            return
          </CharString>
          <CharString index="44">
            25 callsubr
            -189 70 350 -70 -91 -70 hlineto
            endchar
          </CharString>
          <CharString index="45">
            49 545 rmoveto
            -49 -113 98 -132 49 245 -49 -64 -49 hlineto
            endchar
          </CharString>
          <CharString index="46">
            177 148 rmoveto
            19 -19 -27 13 -31 hhcurveto
            -78 callsubr
            hvcurveto
            return
          </CharString>
          <CharString index="47">
            -96 callsubr
            63 -10 -104 callsubr
            return
          </CharString>
          <CharString index="48">
            40 426 vlineto
            -103 callgsubr
            -466 hlineto
            return
          </CharString>
          <CharString index="49">
            -130 -250 rmoveto
            242 -97 callgsubr
            return
          </CharString>
          <CharString index="50">
            -60 -69 callgsubr
            endchar
          </CharString>
          <CharString index="51">
            11 -37 callgsubr
            return
          </CharString>
          <CharString index="52">
            245 vmoveto
            -245 49 245 vlineto
            endchar
          </CharString>
          <CharString index="53">
            -85 callgsubr
            11 9 9 11 hvcurveto
            return
          </CharString>
          <CharString index="54">
            65 35 30 60 50 -45 40 -55 return
          </CharString>
          <CharString index="55">
            380 hlineto
            -101 callsubr
            return
          </CharString>
          <CharString index="56">
            210 350 rmoveto
            -210 return
          </CharString>
          <CharString index="57">
            -7 1 -7 1 -6 return
          </CharString>
          <CharString index="58">
            -41 callsubr
            250 -106 callgsubr
          </CharString>
          <CharString index="59">
            -33 -220 -73 callgsubr
            96 -40 callsubr
            -40 -60 -69 callgsubr
            return
          </CharString>
          <CharString index="60">
            -85 callsubr
            235 -43 callsubr
          </CharString>
          <CharString index="61">
            -33 -220 -73 callgsubr
            96 -22 callgsubr
            -40 -57 callsubr
          </CharString>
          <CharString index="62">
            33 callgsubr
            -7 -6 0 -7 -74 callsubr
          </CharString>
          <CharString index="63">
            -33 callgsubr
            endchar
          </CharString>
          <CharString index="64">
            -77 callsubr
            0 -40 hhcurveto
            -96 callgsubr
            -50 callsubr
            hvcurveto
            -52 -70 52 hlineto
            -1 -6 -1 -7 -7 vvcurveto
            -76 callsubr
            vhcurveto
            180 vmoveto
            -89 callgsubr
            -110 -95 callgsubr
          </CharString>
          <CharString index="65">
            -36 callgsubr
            295 -107 callsubr
            -275 vlineto
            -18 16 -23 13 -13 vhcurveto
            41 -41 -42 -52 -62 -54 -46 -34 rlinecurve
            180 110 rmoveto
            40 -40 rlineto
            -80 hlineto
            40 40 rlineto
            endchar
          </CharString>
          <CharString index="66">
            -24 callgsubr
            124 return
          </CharString>
          <CharString index="67">
            vlineto
            25 -13 16 -35 -32 -22 6 23 -23 vhcurveto
            -82 callgsubr
            16 36 10 80 10 hvcurveto
            -15 -3 -14 -5 -9 hhcurveto
            -90 callgsubr
            -83 55 -20 72 -2 vhcurveto
            return
          </CharString>
          <CharString index="68">
            243 hlineto
            31 9 14 24 5 hvcurveto
            4 17 1 22 26 vvcurveto
            36 -4 37 -6 25 vhcurveto
            56 -15 -38 33 -50 hhcurveto
            -55 -58 callgsubr
            -110 -97 callsubr
            return
          </CharString>
          <CharString index="69">
            65 109 39 134 12 120 rlinecurve
            -92 -40 -4 -101 -17 -84 -35 -81 rlinecurve
            -154 266 -60 -57 169 -294 -33 -54 -42 -55 -54 -60 rlinecurve
            156 123 rmoveto
            31 -53 rlineto
            -81 hlineto
            18 16 16 18 16 19 rrcurveto
            endchar
          </CharString>
          <CharString index="70">
            199 -250 rmoveto
            43 46 8 35 76 hvcurveto
            -8 -49 -35 -4 -26 hhcurveto
            -83 -91 36 90 67 50 26 40 hvcurveto
            return
          </CharString>
          <CharString index="71">
            rmoveto
            -60 callsubr
            return
          </CharString>
          <CharString index="72">
            130 vlineto
            110 -107 callsubr
            -129 vlineto
            -1 -7 -6 0 -7 -51 callgsubr
          </CharString>
          <CharString index="73">
            68 68 rlineto
            350 -107 callsubr
            -330 vlineto
            -20 -26 -20 26 rlineto
            320 -107 callsubr
            -300 vlineto
            68 -68 rlineto
            32 -32 rmoveto
            40 -40 -17 -13 -46 0 -17 13 rlinecurve
            40 40 rlineto
            endchar
          </CharString>
          <CharString index="74">
            -79 callsubr
            hvcurveto
            -12 callgsubr
          </CharString>
          <CharString index="75">
            -52 callgsubr
            -430 -97 callsubr
            448 90 -106 callgsubr
          </CharString>
          <CharString index="76">
            -86 callsubr
            -93 hlineto
            -90 callgsubr
            -85 57 -19 74 -1 vhcurveto
            endchar
          </CharString>
          <CharString index="77">
            -28 callsubr
            endchar
          </CharString>
          <CharString index="78">
            70 -40 130 hlineto
            -23 callsubr
          </CharString>
          <CharString index="79">
            -72 callgsubr
            82 -7 callgsubr
            return
          </CharString>
          <CharString index="80">
            -101 callsubr
            -50 vlineto
            -74 -46 -40 -63 -23 6 -20 6 -14 hvcurveto
            -32 hlineto
            109 90 rmoveto
            31 -30 -40 -10 rlineto
            31 -50 rmoveto
            -31 30 40 10 -9 -40 rlineto
            endchar
          </CharString>
          <CharString index="81">
            -436 70 hlineto
            -101 callsubr
            -410 -12 callsubr
          </CharString>
          <CharString index="82">
            -22 callsubr
            endchar
          </CharString>
          <CharString index="83">
            -91 callsubr
            45 hlineto
            31 101 47 23 54 hvcurveto
            return
          </CharString>
          <CharString index="84">
            -100 callgsubr
            -98 callgsubr
            vhcurveto
            -93 callsubr
          </CharString>
          <CharString index="85">
            -58 callsubr
            270 vlineto
            -80 80 39 callgsubr
            return
          </CharString>
          <CharString index="86">
            -360 hlineto
            41 74 22 88 101 vvcurveto
            37 -3 39 -6 41 vhcurveto
            -80 -80 rlineto
            7 -40 4 -42 -43 vvcurveto
            -83 -15 -85 -34 -77 vhcurveto
            endchar
          </CharString>
          <CharString index="87">
            37 callgsubr
            -68 46 -168 9 hvcurveto
            -60 -105 rlineto
            172 -80 callsubr
            -236 hlineto
            endchar
          </CharString>
          <CharString index="88">
            17 hmoveto
            -1 callgsubr
          </CharString>
          <CharString index="89">
            -86 callsubr
            -212 9 callsubr
            endchar
          </CharString>
          <CharString index="90">
            -20 hmoveto
            339 -106 callsubr
            -137 -86 callsubr
            -82 hlineto
            endchar
          </CharString>
          <CharString index="91">
            -20 hmoveto
            359 -106 callsubr
            -157 -86 callsubr
            -82 hlineto
            endchar
          </CharString>
          <CharString index="92">
            19 callsubr
            116 hlineto
            endchar
          </CharString>
          <CharString index="93">
            -436 -52 callsubr
            -470 -92 callsubr
          </CharString>
          <CharString index="94">
            84 245 11 callgsubr
          </CharString>
          <CharString index="95">
            -88 callgsubr
            228 230 rmoveto
            -59 callsubr
            endchar
          </CharString>
          <CharString index="96">
            -130 vlineto
            -210 -99 callgsubr
            229 vlineto
            1 7 6 0 7 hhcurveto
            55 45 40 50 60 -45 30 -55 return
          </CharString>
          <CharString index="97">
            84 245 rmoveto
            -98 -35 98 -49 -245 217 49 -168 49 168 49 -84 49 84 49 vlineto
            endchar
          </CharString>
          <CharString index="98">
            hlineto
            -54 callsubr
            return
          </CharString>
          <CharString index="99">
            460 52 callgsubr
            -380 vlineto
            15 callsubr
            return
          </CharString>
          <CharString index="100">
            147 545 22 callgsubr
          </CharString>
          <CharString index="101">
            350 vmoveto
            -350 210 70 -140 70 140 70 -140 70 140 70 vlineto
            endchar
          </CharString>
          <CharString index="102">
            vlineto
            -50 37 -30 40 30 31 16 34 22 vhcurveto
            -4 -9 -12 -3 -12 hhcurveto
            -24 -23 11 26 hvcurveto
            return
          </CharString>
          <CharString index="103">
            70 -41 hlineto
            6 1 7 7 vvcurveto
            -100 callgsubr
            -50 callsubr
            vhcurveto
            return
          </CharString>
          <CharString index="104">
            75 560 rmoveto
            -88 -42 -12 -114 75 -79 25 50 rcurveline
            -57 54 5 82 52 49 rrcurveto
            return
          </CharString>
          <CharString index="105">
            82 259 rmoveto
            -97 -46 -13 -126 82 -87 28 56 rcurveline
            -63 59 6 90 57 54 rrcurveto
            return
          </CharString>
          <CharString index="106">
            55 callgsubr
            -350 70 189 140 161 vlineto
            endchar
          </CharString>
          <CharString index="107">
            -160 rmoveto
            59 57 -59 103 rlineto
            59 70 -100 hlineto
            -92 160 -59 -57 59 -103 rlineto
            return
          </CharString>
          <CharString index="108">
            rmoveto
            28 callsubr
            -66 callgsubr
            hvcurveto
            endchar
          </CharString>
          <CharString index="109">
            140 350 rmoveto
            -280 -70 280 -70 -350 210 350 vlineto
            endchar
          </CharString>
          <CharString index="110">
            0 vmoveto
            97 46 13 126 -82 87 -28 -56 rcurveline
            63 -59 -6 -90 -57 -54 rrcurveto
            return
          </CharString>
          <CharString index="111">
            vmoveto
            147 147 -98 49 98 49 -38 callgsubr
            -98 hlineto
            endchar
          </CharString>
          <CharString index="112">
            98 545 13 callsubr
          </CharString>
          <CharString index="113">
            98 245 13 callsubr
          </CharString>
          <CharString index="114">
            62 110 rmoveto
            414 hlineto
            19 callsubr
            return
          </CharString>
          <CharString index="115">
            43 callgsubr
            70 140 240 return
          </CharString>
          <CharString index="116">
            hlineto
            -50 -40 -40 -50 -50 40 -40 50 hvcurveto
            return
          </CharString>
          <CharString index="117">
            70 -40 200 hlineto
            -101 callsubr
            -100 vlineto
            -80 80 -42 -71 89 -89 rlineto
            return
          </CharString>
          <CharString index="118">
            58 callgsubr
            16 13 13 16 16 -13 13 -16 hvcurveto
            return
          </CharString>
          <CharString index="119">
            140 hmoveto
            70 350 -210 -350 70 280 70 hlineto
            endchar
          </CharString>
          <CharString index="120">
            rmoveto
            -196 -49 196 -49 -245 147 245 vlineto
            endchar
          </CharString>
          <CharString index="121">
            hlineto
            -103 callgsubr
            -476 hlineto
            return
          </CharString>
          <CharString index="122">
            -93 callgsubr
            -52 -90 rlineto
            return
          </CharString>
          <CharString index="123">
            22 110 rmoveto
            414 -80 callsubr
            -494 -70 return
          </CharString>
          <CharString index="124">
            -20 hmoveto
            690 -101 callgsubr
            -436 return
          </CharString>
          <CharString index="125">
            -63 -103 callsubr
            339 hlineto
            6 15 0 21 36 return
          </CharString>
          <CharString index="126">
            -103 callgsubr
            -476 hlineto
            -40 -70 rlineto
            return
          </CharString>
          <CharString index="127">
            -49 -49 49 49 vlineto
            endchar
          </CharString>
          <CharString index="128">
            -7 -6 0 1 -7 return
          </CharString>
          <CharString index="129">
            40 325 rmoveto
            235 -40 -235 vlineto
            return
          </CharString>
          <CharString index="130">
            -147 -49 98 -49 -98 return
          </CharString>
          <CharString index="131">
            95 -15 -58 15 -38 hhcurveto
            return
          </CharString>
          <CharString index="132">
            70 350 rmoveto
            -70 -161 140 return
          </CharString>
          <CharString index="133">
            147 vmoveto
            -49 49 49 vlineto
            endchar
          </CharString>
          <CharString index="134">
            rmoveto
            -118 119 118 vlineto
            return
          </CharString>
          <CharString index="135">
            -22 -18 -18 -22 -22 18 -18 22 return
          </CharString>
        <CharString name=".notdef">
          66 40 hmoveto
          250 450 -250 hlineto
          210 -79 rmoveto
          -297 vlineto
          -65 148 65 149 rlineto
          -170 -290 rmoveto
          283 vlineto
          62 -142 -62 -141 rlineto
          84 192 rmoveto
          -60 137 rlineto
          119 hlineto
          -59 -137 rlineto
          -101 vmoveto
          57 -132 rlineto
          -115 hlineto
          58 132 rlineto
          endchar
        </CharString>
        <CharString name="a">
          120 hmoveto
          80 90 hlineto
          -6 callgsubr
          7 7 0 1 6 hvcurveto
          -20 69 -106 callgsubr
        </CharString>
        <CharString name="ain-ar">
          416 -29 callgsubr
          endchar
        </CharString>
        <CharString name="ain-ar.1">
          265 -49 callgsubr
          -273 -35 callgsubr
        </CharString>
        <CharString name="ain-ar.2">
          265 -24 callsubr
          -203 -35 callgsubr
        </CharString>
        <CharString name="ain-ar.3">
          66 -37 callsubr
          79 -106 callsubr
          -127 hlineto
          -21 -12 17 19 21 16 23 37 13 16 -3 -7 18 hvcurveto
          45 -14 -35 25 -35 hhcurveto
          -88 -30 -102 -63 38 hvcurveto
          -43 -29 -23 -52 -54 vvcurveto
          -104 86 -56 113 vhcurveto
          endchar
        </CharString>
        <CharString name="ain-ar.fina">
          40 -37 callsubr
          134 10 callsubr
          -1 44 callgsubr
        </CharString>
        <CharString name="ain-ar.init">
          66 -20 hmoveto
          269 -61 callgsubr
          -46 hlineto
          endchar
        </CharString>
        <CharString name="ain-ar.init.1">
          16 -20 hmoveto
          219 -106 callsubr
          -127 0 callgsubr
          hlineto
          endchar
        </CharString>
        <CharString name="ain-ar.medi">
          -22 -20 hmoveto
          262 10 callsubr
          -109 hlineto
          endchar
        </CharString>
        <CharString name="alef-ar">
          96 -72 callsubr
        </CharString>
        <CharString name="alef-ar.1">
          -64 -10 callgsubr
        </CharString>
        <CharString name="alef-ar.2">
          16 80 100 rmoveto
          460 -107 callsubr
          -440 vlineto
          -66 52 -34 61 42 47 16 34 38 vhcurveto
          -8 -24 -27 -5 -24 hhcurveto
          -46 -39 17 46 hvcurveto
          endchar
        </CharString>
        <CharString name="alef-ar.3">
          -144 40 callgsubr
          480 -107 callsubr
          -470 vlineto
          -30 -13 -20 -27 vhcurveto
          endchar
        </CharString>
        <CharString name="alef-ar.fina">
          -144 -41 callgsubr
          -500 vlineto
          -25 15 -15 23 vhcurveto
          82 70 -30 hlineto
          -7 -3 3 7 hvcurveto
          endchar
        </CharString>
        <CharString name="alefHamzaabove-ar">
          96 -71 callsubr
          106 363 -100 callsubr
        </CharString>
        <CharString name="alefHamzabelow-ar">
          96 -71 callsubr
          -3 -218 -100 callsubr
        </CharString>
        <CharString name="alefMadda-ar">
          96 -72 callsubr
        </CharString>
        <CharString name="alefMaksura-ar">
          -17 -75 callsubr
        </CharString>
        <CharString name="alefMaksura-ar.1">
          -17 -33 -250 -73 callgsubr
          126 -40 callsubr
          -70 -57 callsubr
        </CharString>
        <CharString name="alefMaksura-ar.2">
          -22 -49 callgsubr
          -283 -80 callgsubr
        </CharString>
        <CharString name="alefMaksura-ar.3">
          -22 50 callgsubr
          -428 -80 callgsubr
        </CharString>
        <CharString name="alefMaksura-ar.4">
          -22 -91 callsubr
          560 -106 callsubr
          -583 -80 callgsubr
        </CharString>
        <CharString name="alefMaksura-ar.5">
          -22 -44 callsubr
        </CharString>
        <CharString name="alefMaksura-ar.6">
          -22 24 callgsubr
          -583 -80 callgsubr
        </CharString>
        <CharString name="alefMaksura-ar.fina">
          -57 -46 callsubr
        </CharString>
        <CharString name="alefMaksura-ar.fina.0">
          -57 -46 callsubr
        </CharString>
        <CharString name="alefMaksura-ar.fina.1">
          -57 -33 -250 -73 callgsubr
          126 -22 callgsubr
          -70 -57 callsubr
        </CharString>
        <CharString name="alefMaksura-ar.fina.2">
          -57 -49 callgsubr
          -273 -94 callsubr
        </CharString>
        <CharString name="alefMaksura-ar.fina.3">
          -57 50 callgsubr
          -418 -94 callsubr
        </CharString>
        <CharString name="alefMaksura-ar.fina.4">
          -57 -91 callsubr
          560 -106 callsubr
          -573 -94 callsubr
        </CharString>
        <CharString name="alefMaksura-ar.fina.5">
          -57 -24 callsubr
          -203 -94 callsubr
        </CharString>
        <CharString name="alefMaksura-ar.fina.6">
          -57 24 callgsubr
          -573 -94 callsubr
        </CharString>
        <CharString name="alefMaksura-ar.fina.tooth">
          16 -40 -220 rmoveto
          299 -104 callgsubr
          -76 hlineto
          -7 -3 3 7 hvcurveto
          80 -80 -120 vlineto
          -25 15 -15 23 vhcurveto
          118 -80 callsubr
          -196 hlineto
          endchar
        </CharString>
        <CharString name="alefWasla-ar">
          96 -72 callsubr
        </CharString>
        <CharString name="b">
          290 vmoveto
          -70 vlineto
          -130 vlineto
          -60 35 -30 65 55 45 30 60 50 -45 40 -55 -7 -6 0 1 -7 vhcurveto
          379 vlineto
          -80 -20 rlineto
          100 -470 -106 callgsubr
        </CharString>
        <CharString name="backslash">
          12 236 14 rmoveto
          -198 546 -38 -14 199 -546 rlineto
          endchar
        </CharString>
        <CharString name="beh-ar">
          336 -99 callsubr
          198 -214 -104 callsubr
          endchar
        </CharString>
        <CharString name="behDotless-ar">
          336 -99 callsubr
          endchar
        </CharString>
        <CharString name="behDotless-ar.fina">
          336 0 vmoveto
          600 70 hlineto
          -47 callgsubr
          -380 vlineto
          -93 callgsubr
          endchar
        </CharString>
        <CharString name="behDotless-ar.fina.1">
          336 0 vmoveto
          600 70 -47 hlineto
          -51 140 -68 -46 34 -94 rlineto
          -368 -97 callsubr
          endchar
        </CharString>
        <CharString name="behDotless-ar.init">
          -144 -20 hmoveto
          79 hlineto
          -102 callgsubr
          219 -42 callgsubr
          -105 callgsubr
        </CharString>
        <CharString name="behDotless-ar.init.hah">
          -184 -40 callgsubr
          90 -107 callsubr
          -70 vlineto
          -19 0 -26 -20 vhcurveto
          endchar
        </CharString>
        <CharString name="behDotless-ar.medi">
          -144 -20 -102 callsubr
          hlineto
          -47 callgsubr
          -105 callgsubr
        </CharString>
        <CharString name="behDotless-ar.medi.1">
          -114 -20 hmoveto
          170 70 -40 hlineto
          -86 callgsubr
          rlineto
          -20 hlineto
          endchar
        </CharString>
        <CharString name="behDotless-ar.medi.high">
          -144 -20 -102 callsubr
          hlineto
          -8 callgsubr
          -105 callgsubr
        </CharString>
        <CharString name="behDotless-ar.medi.high.1">
          -144 -20 -102 callsubr
          hlineto
          -107 callgsubr
          150 -107 callsubr
          -170 -20 vlineto
          endchar
        </CharString>
        <CharString name="behDotless-ar.medi.yeh">
          -144 80 80 rmoveto
          150 -107 callsubr
          -210 48 callgsubr
        </CharString>
        <CharString name="braceleft">
          -56 168 560 rmoveto
          -70 -46 -57 -82 -114 -9 -45 -43 -31 hvcurveto
          43 -31 9 -38 -115 vvcurveto
          -89 39 -58 77 vhcurveto
          -43 17 -21 41 89 vvcurveto
          93 -3 67 -87 24 vhcurveto
          90 24 0 66 100 vvcurveto
          82 21 37 43 20 vhcurveto
          endchar
        </CharString>
        <CharString name="braceright">
          -56 -100 vmoveto
          70 46 57 82 114 9 45 43 31 hvcurveto
          -43 31 -9 38 115 vvcurveto
          89 -39 58 -77 vhcurveto
          43 -17 21 -41 -89 vvcurveto
          -93 3 -67 87 -24 vhcurveto
          -90 -24 0 -66 -100 vvcurveto
          -82 -21 -37 -43 -20 vhcurveto
          endchar
        </CharString>
        <CharString name="bracketleft">
          -114 110 560 rmoveto
          -110 -660 110 40 -70 580 70 hlineto
          endchar
        </CharString>
        <CharString name="bracketright">
          -114 -100 vmoveto
          110 660 -110 -40 70 -580 -70 hlineto
          endchar
        </CharString>
        <CharString name="bullet">
          -107 59 103 rmoveto
          32 26 26 33 32 -26 26 -32 -33 -26 -26 -32 -33 26 -26 33 hvcurveto
          endchar
        </CharString>
        <CharString name="c">
          -84 90 hmoveto
          50 70 -40 hlineto
          -54 callsubr
          40 70 -50 9 callsubr
          endchar
        </CharString>
        <CharString name="colon">
          -144 40 -83 callgsubr
          180 vmoveto
          22 18 18 22 22 -18 18 -22 -22 -18 -18 -22 -22 18 -18 22 hvcurveto
          endchar
        </CharString>
        <CharString name="comma">
          -144 21 callgsubr
          endchar
        </CharString>
        <CharString name="comma-ar">
          -144 20 callgsubr
          endchar
        </CharString>
        <CharString name="d">
          -79 callsubr
          hvcurveto
          -59 callgsubr
        </CharString>
        <CharString name="dad-ar">
          476 -27 callgsubr
          230 -50 callgsubr
        </CharString>
        <CharString name="dal-ar">
          336 -62 callgsubr
          endchar
        </CharString>
        <CharString name="dal-ar.fina">
          336 0 vmoveto
          600 -101 callgsubr
          -326 -64 callsubr
          372 -80 callsubr
          -436 hlineto
          endchar
        </CharString>
        <CharString name="ddal-ar">
          336 -62 callgsubr
          166 185 -70 callsubr
        </CharString>
        <CharString name="dotabove-ar">
          -264 17 hmoveto
          -96 callsubr
          endchar
        </CharString>
        <CharString name="dotabove-ar.alt1">
          -264 -72 callgsubr
          endchar
        </CharString>
        <CharString name="dotbelow-ar">
          -264 17 hmoveto
          -96 callsubr
          endchar
        </CharString>
        <CharString name="dotbelow-ar.alt1">
          -264 -72 callgsubr
          endchar
        </CharString>
        <CharString name="e">
          80 90 rmoveto
          120 hlineto
          -100 callgsubr
          -76 callsubr
          vhcurveto
          70 vlineto
          -85 callgsubr
          hvcurveto
          37 10 rmoveto
          -34 hlineto
          6 3 7 4 7 hhcurveto
          7 7 -4 -6 3 hvcurveto
          endchar
        </CharString>
        <CharString name="eight">
          -14 -51 callsubr
          -350 210 hlineto
          -140 70 rmoveto
          70 70 -70 -70 vlineto
          70 140 rmoveto
          -70 70 70 -70 hlineto
          endchar
        </CharString>
        <CharString name="eight-ar">
          -14 12 callsubr
        </CharString>
        <CharString name="eight-ar.1">
          82 153 238 rmoveto
          87 -238 66 23 -120 327 rlineto
          -66 hlineto
          -120 -327 66 -23 87 238 rlineto
          endchar
        </CharString>
        <CharString name="eight-ar.2">
          102 163 185 rmoveto
          85 -185 rlineto
          78 hlineto
          -163 350 -163 -350 rlineto
          77 hlineto
          86 185 rlineto
          endchar
        </CharString>
        <CharString name="eight-ar.dnom">
          -77 36 callgsubr
        </CharString>
        <CharString name="eight-ar.numr">
          -77 28 callgsubr
        </CharString>
        <CharString name="eight-persian">
          -14 12 callsubr
        </CharString>
        <CharString name="eight-persian.dnom">
          -77 36 callgsubr
        </CharString>
        <CharString name="eight-persian.numr">
          -77 28 callgsubr
        </CharString>
        <CharString name="eight.dnom">
          -77 147 245 rmoveto
          -147 -245 147 hlineto
          -98 49 rmoveto
          -39 callgsubr
          49 98 rmoveto
          -49 49 49 -49 hlineto
          endchar
        </CharString>
        <CharString name="eight.numr">
          -77 147 545 rmoveto
          -147 -245 147 hlineto
          -98 49 rmoveto
          -39 callgsubr
          49 98 rmoveto
          -49 49 49 -49 hlineto
          endchar
        </CharString>
        <CharString name="ellipsis">
          96 40 -83 callgsubr
          120 -83 callgsubr
          120 -83 callgsubr
          endchar
        </CharString>
        <CharString name="emdash">
          296 140 vmoveto
          520 40 -520 hlineto
          endchar
        </CharString>
        <CharString name="empty">
          -264 endchar
        </CharString>
        <CharString name="endash">
          36 140 vmoveto
          260 40 -260 hlineto
          endchar
        </CharString>
        <CharString name="exclam">
          -120 64 155 rmoveto
          68 170 -31 83 -50 136 -2 5 -2 6 -2 5 -45 -91 rcurveline
          2 -4 2 -4 2 -5 36 -79 34 -76 -12 -146 rrcurveto
          -14 -155 -84 callgsubr
        </CharString>
        <CharString name="exclamdown">
          -120 40 290 rmoveto
          -68 -170 31 -83 50 -136 2 -5 2 -6 2 -5 45 91 rcurveline
          -2 4 -2 4 -2 5 -36 79 -34 76 12 146 rrcurveto
          14 155 1 callsubr
        </CharString>
        <CharString name="f">
          -144 40 callgsubr
          270 35 vlineto
          41 70 rlineto
          -68 0 callgsubr
          -70 45 -280 hlineto
          -30 -13 -20 -27 vhcurveto
          endchar
        </CharString>
        <CharString name="feh-ar">
          349 -73 callsubr
          408 245 -104 callsubr
          17 -165 -106 callgsubr
        </CharString>
        <CharString name="fehAfrican-ar">
          349 -32 callgsubr
        </CharString>
        <CharString name="fehDotless-ar">
          349 -32 callgsubr
        </CharString>
        <CharString name="fehDotless-ar.1">
          336 -8 callsubr
          539 -17 callgsubr
        </CharString>
        <CharString name="fehDotless-ar.2">
          389 0 vmoveto
          576 hlineto
          24 13 37 65 -67 callsubr
          hvcurveto
          -32 callsubr
        </CharString>
        <CharString name="fehDotless-ar.3">
          376 9 callgsubr
          579 -17 callgsubr
        </CharString>
        <CharString name="fehDotless-ar.fina">
          349 0 vmoveto
          613 70 -41 hlineto
          1 10 0 10 12 vvcurveto
          -67 callsubr
          vhcurveto
          -52 callgsubr
          -390 -97 callsubr
          408 90 -106 callgsubr
        </CharString>
        <CharString name="fehDotless-ar.fina.1">
          336 -8 callsubr
          600 -29 callsubr
        </CharString>
        <CharString name="fehDotless-ar.fina.2">
          389 0 vmoveto
          653 70 -41 hlineto
          1 10 0 10 12 vvcurveto
          -67 callsubr
          vhcurveto
          -32 callsubr
        </CharString>
        <CharString name="fehDotless-ar.fina.3">
          376 9 callgsubr
          640 -29 callsubr
        </CharString>
        <CharString name="fehDotless-ar.init">
          -11 -20 hmoveto
          196 -55 callgsubr
          -150 hlineto
          120 110 -106 callgsubr
        </CharString>
        <CharString name="fehDotless-ar.init.1">
          -70 callgsubr
          189 vlineto
          -20 callgsubr
        </CharString>
        <CharString name="fehDotless-ar.medi">
          -16 -20 hmoveto
          268 70 -42 137 hlineto
          57 -46 46 -57 -57 -47 -46 -57 -28 15 -26 19 -19 vhcurveto
          62 -64 rlineto
          -115 hlineto
          146 83 rmoveto
          -40 41 rlineto
          -5 5 -4 7 8 vvcurveto
          14 8 12 15 14 12 -12 -14 vhcurveto
          -61 vlineto
          endchar
        </CharString>
        <CharString name="fehDotless-ar.medi.1">
          -94 callgsubr
          130 hlineto
          -20 callgsubr
        </CharString>
        <CharString name="fehDotmovedbelow-ar">
          349 -73 callsubr
          405 -214 -104 callsubr
          20 294 -106 callgsubr
        </CharString>
        <CharString name="five">
          -14 0 vmoveto
          210 210 -140 70 140 70 -210 -210 140 -70 -140 hlineto
          endchar
        </CharString>
        <CharString name="five-ar">
          -14 -57 callgsubr
        </CharString>
        <CharString name="five-ar.dnom">
          -77 -65 callsubr
        </CharString>
        <CharString name="five-ar.numr">
          -77 -56 callgsubr
        </CharString>
        <CharString name="five-persian">
          -14 -57 callgsubr
        </CharString>
        <CharString name="five-persian.dnom">
          -77 -65 callsubr
        </CharString>
        <CharString name="five-persian.numr">
          -77 -56 callgsubr
        </CharString>
        <CharString name="five.dnom">
          -77 0 4 callsubr
        </CharString>
        <CharString name="five.numr">
          -77 300 4 callsubr
        </CharString>
        <CharString name="four">
          -14 -63 callsubr
        </CharString>
        <CharString name="four-ar">
          86 -68 callsubr
        </CharString>
        <CharString name="four-ar.1">
          86 8 callsubr
          70 -120 70 120 70 vlineto
          endchar
        </CharString>
        <CharString name="four-ar.2">
          -14 -6 callsubr
        </CharString>
        <CharString name="four-ar.dnom">
          -7 -10 callsubr
        </CharString>
        <CharString name="four-ar.numr">
          -7 7 callgsubr
        </CharString>
        <CharString name="four-ar.osf">
          86 -68 callsubr
        </CharString>
        <CharString name="four-ar.osf.1">
          86 27 callgsubr
          70 -120 70 120 70 vlineto
          endchar
        </CharString>
        <CharString name="four-ar.osf.2">
          -14 -6 callsubr
        </CharString>
        <CharString name="four-persian">
          86 -68 callsubr
        </CharString>
        <CharString name="four-persian.dnom">
          -7 -10 callsubr
        </CharString>
        <CharString name="four-persian.numr">
          -7 7 callgsubr
        </CharString>
        <CharString name="four-persian.urdu">
          56 120 189 rmoveto
          70 91 90 70 -280 -350 70 280 50 hlineto
          endchar
        </CharString>
        <CharString name="four.dnom">
          -77 -54 callgsubr
        </CharString>
        <CharString name="four.numr">
          -77 -62 callsubr
        </CharString>
        <CharString name="fraction">
          -184 -118 hmoveto
          312 540 -35 20 -312 -540 rlineto
          endchar
        </CharString>
        <CharString name="fullstop-ar">
          -74 110 hmoveto
          40 70 rlineto
          -110 hlineto
          -40 -70 rlineto
          endchar
        </CharString>
        <CharString name="g">
          -82 callsubr
          300 vlineto
          130 -77 callsubr
          -5 -40 hhcurveto
          42 callgsubr
          7 7 0 1 6 hvcurveto
          -181 -81 callsubr
          98 230 -106 callgsubr
        </CharString>
        <CharString name="g.1">
          -82 callsubr
          300 vlineto
          -100 callgsubr
          -76 callsubr
          7 7 0 1 6 vhcurveto
          -181 -81 callsubr
          98 230 -106 callgsubr
        </CharString>
        <CharString name="gaf-ar">
          376 -64 callgsubr
        </CharString>
        <CharString name="ghain-ar">
          416 -29 callgsubr
          309 340 rmoveto
          -96 callsubr
          endchar
        </CharString>
        <CharString name="guillemetleft">
          -60 -2 callsubr
          82 hmoveto
          -97 -46 -13 -126 82 -87 28 56 rcurveline
          -63 59 6 90 57 54 rrcurveto
          endchar
        </CharString>
        <CharString name="guillemetright">
          -60 3 callsubr
          82 hmoveto
          97 46 13 126 -82 87 -28 -56 rcurveline
          63 -59 -6 -90 -57 -54 rrcurveto
          endchar
        </CharString>
        <CharString name="guilsinglleft">
          -142 -2 callsubr
          endchar
        </CharString>
        <CharString name="guilsinglright">
          -142 3 callsubr
          endchar
        </CharString>
        <CharString name="h">
          5 callgsubr
          21 callsubr
          vhcurveto
          379 -107 callsubr
          -560 -99 callgsubr
          39 vlineto
          endchar
        </CharString>
        <CharString name="h.1">
          14 callgsubr
          21 callsubr
          vhcurveto
          379 -107 callsubr
          endchar
        </CharString>
        <CharString name="hah-ar">
          376 -79 callgsubr
          endchar
        </CharString>
        <CharString name="hah-ar.1">
          396 90 -103 callsubr
          425 -106 callsubr
          -456 -9 callsubr
          479 -106 callsubr
          -157 -18 callsubr
        </CharString>
        <CharString name="hah-ar.2">
          416 90 -103 callsubr
          445 -106 callsubr
          -476 -9 callsubr
          499 -106 callsubr
          -177 -18 callsubr
        </CharString>
        <CharString name="hah-ar.3">
          226 -26 callgsubr
        </CharString>
        <CharString name="hah-ar.4">
          343 -91 callsubr
          331 -106 callsubr
          -344 -65 callgsubr
          386 -106 callsubr
          -137 -31 callsubr
        </CharString>
        <CharString name="hah-ar.5">
          363 -91 callsubr
          351 -106 callsubr
          -364 -65 callgsubr
          406 -106 callsubr
          -157 -31 callsubr
        </CharString>
        <CharString name="hah-ar.fina">
          47 312 0 callsubr
          -29 51 callgsubr
          43 46 8 35 76 hvcurveto
          -8 -49 -35 -4 -26 hhcurveto
          -83 -91 36 90 67 50 26 40 hvcurveto
          50 hlineto
          endchar
        </CharString>
        <CharString name="hah-ar.fina.1">
          226 -26 callgsubr
        </CharString>
        <CharString name="hah-ar.init">
          136 -17 callsubr
        </CharString>
        <CharString name="hah-ar.init.1">
          156 -16 callsubr
        </CharString>
        <CharString name="hah-ar.init.2">
          176 -2 callgsubr
        </CharString>
        <CharString name="hah-ar.medi">
          -73 192 0 callsubr
          -79 -70 119 hlineto
          endchar
        </CharString>
        <CharString name="hah-ar.medi.1">
          136 -17 callsubr
        </CharString>
        <CharString name="hah-ar.medi.2">
          156 -16 callsubr
        </CharString>
        <CharString name="hah-ar.medi.3">
          176 -2 callgsubr
        </CharString>
        <CharString name="hamza-ar">
          32 165 50 rmoveto
          -15 -9 12 14 15 12 16 26 10 11 -2 -5 13 hvcurveto
          32 -10 -25 18 -25 hhcurveto
          -55 -23 -56 -44 13 hvcurveto
          -19 hlineto
          -29 -50 rlineto
          186 hlineto
          30 50 rlineto
          -91 hlineto
          endchar
        </CharString>
        <CharString name="hamzaabove-ar">
          -264 72 29 -100 callsubr
        </CharString>
        <CharString name="hamzabelow-ar">
          -264 72 29 -100 callsubr
        </CharString>
        <CharString name="heh-ar">
          -33 callsubr
        </CharString>
        <CharString name="heh-ar.1">
          -79 callsubr
          hvcurveto
          -35 callsubr
        </CharString>
        <CharString name="heh-ar.2">
          -79 callsubr
          hvcurveto
          -59 callgsubr
        </CharString>
        <CharString name="heh-ar.fina">
          100 -102 callsubr
          -40 20 hlineto
          -12 callgsubr
        </CharString>
        <CharString name="heh-ar.fina.1">
          100 -102 callsubr
          -40 20 hlineto
          -35 callsubr
        </CharString>
        <CharString name="heh-ar.fina.2">
          100 -102 callsubr
          -40 20 hlineto
          -59 callgsubr
        </CharString>
        <CharString name="heh-ar.init">
          -47 callsubr
        </CharString>
        <CharString name="heh-ar.init.1">
          -85 callsubr
          235 -34 callgsubr
        </CharString>
        <CharString name="heh-ar.init.2">
          -70 callgsubr
          29 vlineto
          235 -77 callsubr
          0 -40 -74 callsubr
        </CharString>
        <CharString name="heh-ar.init.3">
          -70 callgsubr
          29 vlineto
          235 vlineto
          -45 callsubr
        </CharString>
        <CharString name="heh-ar.init.4">
          -71 callgsubr
          235 vlineto
          -35 -20 -20 0 -40 hhcurveto
          -18 callgsubr
        </CharString>
        <CharString name="heh-ar.init.5">
          -71 callgsubr
          235 vlineto
          -21 callgsubr
        </CharString>
        <CharString name="heh-ar.init.6">
          -71 callgsubr
          245 vlineto
          -28 -16 -24 -7 -40 hhcurveto
          -74 -46 -40 -63 -23 6 -20 6 -14 hvcurveto
          -32 hlineto
          109 90 rmoveto
          31 -30 -40 -10 rlineto
          31 -50 rmoveto
          -31 30 40 10 -9 -40 rlineto
          endchar
        </CharString>
        <CharString name="heh-ar.init.7">
          -71 callgsubr
          280 vlineto
          -27 callsubr
        </CharString>
        <CharString name="heh-ar.medi">
          -85 callsubr
          20 40 70 -40 145 -43 callsubr
        </CharString>
        <CharString name="heh-ar.medi.1">
          -85 callsubr
          20 40 70 -40 145 -34 callgsubr
        </CharString>
        <CharString name="heh-ar.medi.2">
          -94 callgsubr
          205 hlineto
          -35 -20 -40 0 -40 -74 callsubr
        </CharString>
        <CharString name="heh-ar.medi.3">
          -94 callgsubr
          205 hlineto
          -45 callsubr
        </CharString>
        <CharString name="heh-ar.medi.4">
          -94 callgsubr
          185 hlineto
          -35 -20 -20 0 -40 hhcurveto
          -65 -57 -32 -72 -18 4 -16 6 -12 hvcurveto
          -28 hlineto
          100 44 rmoveto
          20 2 17 16 21 hhcurveto
          -20 -2 -17 -16 -21 hhcurveto
          40 -44 rmoveto
          -21 -17 16 20 -2 hvcurveto
          21 17 -16 -20 2 hvcurveto
          endchar
        </CharString>
        <CharString name="heh-ar.medi.5">
          -94 callgsubr
          185 hlineto
          -21 callgsubr
        </CharString>
        <CharString name="heh-ar.medi.6">
          -94 callgsubr
          195 hlineto
          -28 -16 -24 -7 -40 hhcurveto
          -74 -46 -40 -63 -23 6 -20 6 -14 hvcurveto
          -32 hlineto
          109 90 rmoveto
          31 -30 -40 -10 rlineto
          31 -50 rmoveto
          -31 30 40 10 -9 -40 rlineto
          endchar
        </CharString>
        <CharString name="heh-ar.medi.7">
          -94 callgsubr
          230 hlineto
          -27 callsubr
        </CharString>
        <CharString name="hehDoachashmee-ar">
          -47 callsubr
        </CharString>
        <CharString name="hehgoal-ar">
          -33 callsubr
        </CharString>
        <CharString name="hehgoalHamzaabove-ar">
          8 callgsubr
          13 264 -63 callgsubr
          -13 -194 -106 callgsubr
        </CharString>
        <CharString name="hyphen">
          -94 140 vmoveto
          130 40 -130 hlineto
          endchar
        </CharString>
        <CharString name="i">
          -64 80 80 rmoveto
          120 -107 callsubr
          -100 -5 callsubr
          159 vmoveto
          20 vlineto
          -80 -21 rlineto
          -20 vlineto
          endchar
        </CharString>
        <CharString name="j">
          -144 -40 -230 47 callgsubr
          370 vlineto
          -95 callsubr
          vlineto
          -30 -13 -20 -27 vhcurveto
          120 469 rmoveto
          20 vlineto
          -80 -21 rlineto
          -20 vlineto
          endchar
        </CharString>
        <CharString name="jeem-ar">
          376 -79 callgsubr
          180 -124 -104 callsubr
          endchar
        </CharString>
        <CharString name="jeh-ar">
          48 -78 callgsubr
          79 255 -74 callgsubr
        </CharString>
        <CharString name="k">
          -4 -46 callgsubr
          16 -5 15 -8 13 vhcurveto
          58 62 -27 128 -98 hhcurveto
          -15 -15 -5 -9 -14 hvcurveto
          254 -107 callsubr
          -560 -99 callgsubr
          39 vlineto
          142 vmoveto
          79 vlineto
          2 3 0 2 hhcurveto
          37 16 -23 -21 -19 -12 -17 -21 hvcurveto
          -7 hlineto
          -7 -6 0 1 -7 hvcurveto
          endchar
        </CharString>
        <CharString name="k.1">
          -4 0 vmoveto
          80 90 hlineto
          -87 callgsubr
          -90 80 90 vlineto
          16 -5 15 -8 13 vhcurveto
          58 62 -27 128 -98 hhcurveto
          -15 -15 -5 -9 -14 hvcurveto
          254 -107 callsubr
          80 -359 rmoveto
          79 vlineto
          2 3 0 2 hhcurveto
          37 16 -23 -21 -19 -12 -17 -21 hvcurveto
          -7 hlineto
          -7 -6 0 1 -7 hvcurveto
          endchar
        </CharString>
        <CharString name="kaf-ar">
          376 -64 callgsubr
        </CharString>
        <CharString name="kaf-ar.1">
          376 7 callsubr
          579 -104 callgsubr
          -21 callsubr
        </CharString>
        <CharString name="kaf-ar.2">
          376 116 hmoveto
          463 -104 callgsubr
          -366 hlineto
          27 70 rlineto
          -3 hlineto
          -80 -140 rlineto
          412 hlineto
          -15 callsubr
        </CharString>
        <CharString name="kaf-ar.fina">
          376 116 hmoveto
          524 -101 callgsubr
          -66 callsubr
          -476 hlineto
          -40 -70 rlineto
          116 hlineto
          endchar
        </CharString>
        <CharString name="kaf-ar.fina.1">
          376 7 callsubr
          640 -101 callgsubr
          -21 callsubr
        </CharString>
        <CharString name="kaf-ar.fina.2">
          376 116 hmoveto
          524 -101 callgsubr
          -366 hlineto
          27 70 rlineto
          -3 hlineto
          -80 -140 rlineto
          412 hlineto
          -15 callsubr
        </CharString>
        <CharString name="kaf-ar.init">
          316 -20 hmoveto
          539 -104 callgsubr
          -370 -64 callsubr
          416 14 callsubr
          endchar
        </CharString>
        <CharString name="kaf-ar.init.1">
          336 16 callsubr
          557 -104 callgsubr
          3 callgsubr
        </CharString>
        <CharString name="kaf-ar.init.2">
          336 -20 hmoveto
          559 -104 callgsubr
          -66 callsubr
          -496 hlineto
          endchar
        </CharString>
        <CharString name="kaf-ar.medi">
          316 -20 hmoveto
          600 -101 callgsubr
          -370 -64 callsubr
          416 14 callsubr
          endchar
        </CharString>
        <CharString name="kaf-ar.medi.1">
          336 -20 hmoveto
          620 -101 callgsubr
          -66 callsubr
          -496 hlineto
          endchar
        </CharString>
        <CharString name="kaf-ar.medi.2">
          336 16 callsubr
          618 -101 callgsubr
          3 callgsubr
        </CharString>
        <CharString name="kashida-ar">
          -184 -20 hmoveto
          100 70 -100 hlineto
          endchar
        </CharString>
        <CharString name="keheh-ar">
          376 -64 callgsubr
        </CharString>
        <CharString name="khah-ar">
          376 -79 callgsubr
          419 273 -104 callsubr
          endchar
        </CharString>
        <CharString name="l">
          -64 -10 callgsubr
        </CharString>
        <CharString name="lam-ar">
          -74 -58 callsubr
          770 -107 callsubr
          -720 -105 callsubr
        </CharString>
        <CharString name="lam-ar.fina">
          -74 -98 callsubr
          40 70 vlineto
          -107 callgsubr
          450 -107 callsubr
          -720 -105 callsubr
        </CharString>
        <CharString name="lam-ar.init">
          -144 -68 callgsubr
          520 53 callgsubr
        </CharString>
        <CharString name="lam-ar.init.hah">
          -184 -40 callgsubr
          380 vlineto
          -95 callsubr
          vlineto
          -19 0 -26 -20 vhcurveto
          endchar
        </CharString>
        <CharString name="lam-ar.init.hah2">
          -184 -40 callgsubr
          270 vlineto
          -81 callgsubr
          vlineto
          -19 0 -26 -20 vhcurveto
          endchar
        </CharString>
        <CharString name="lam-ar.init.lellah">
          -144 -68 callgsubr
          490 -107 callsubr
          -440 -105 callgsubr
        </CharString>
        <CharString name="lam-ar.init.short">
          -144 -68 callgsubr
          410 vlineto
          -95 callsubr
          -105 callgsubr
        </CharString>
        <CharString name="lam-ar.init.short2">
          -144 -68 callgsubr
          300 vlineto
          -81 callgsubr
          -105 callgsubr
        </CharString>
        <CharString name="lam-ar.medi">
          -144 -83 callsubr
          450 53 callgsubr
        </CharString>
        <CharString name="lam-ar.medi.lellah">
          -144 -83 callsubr
          390 -107 callsubr
          -410 -20 vlineto
          endchar
        </CharString>
        <CharString name="lam-ar.medi.short">
          -144 -83 callsubr
          340 vlineto
          -95 callsubr
          -105 callgsubr
        </CharString>
        <CharString name="lam-ar.medi.short2">
          -144 -83 callsubr
          230 vlineto
          -81 callgsubr
          -105 callgsubr
        </CharString>
        <CharString name="lam-ar.medi.yeh">
          -144 -41 callgsubr
          -540 48 callgsubr
        </CharString>
        <CharString name="lam_alef-ar">
          96 0 vmoveto
          320 hlineto
          -114 197 -38 callsubr
        </CharString>
        <CharString name="lam_alef-ar.1">
          -9 0 vmoveto
          215 100 hlineto
          29 -13 31 -30 22 vhcurveto
          -92 66 rlineto
          312 -107 callsubr
          -234 vlineto
          -213 154 -29 -77 242 -175 rlineto
          80 -58 rmoveto
          46 -33 rlineto
          4 -4 5 -5 -8 vvcurveto
          -30 -55 80 vlineto
          endchar
        </CharString>
        <CharString name="lam_alef-ar.2">
          56 0 vmoveto
          280 hlineto
          -108 142 -19 callgsubr
        </CharString>
        <CharString name="lam_alef-ar.3">
          56 0 vmoveto
          280 hlineto
          -108 142 -34 callsubr
        </CharString>
        <CharString name="lam_alef-ar.4">
          136 0 vmoveto
          360 hlineto
          -46 34 -62 54 -42 52 -30 callgsubr
        </CharString>
        <CharString name="lam_alef-ar.5">
          136 0 vmoveto
          360 hlineto
          -46 34 -62 54 -42 52 -42 callsubr
        </CharString>
        <CharString name="lam_alef-ar.fina">
          96 0 vmoveto
          360 70 -80 hlineto
          -74 127 -38 callsubr
        </CharString>
        <CharString name="lam_alef-ar.fina.1">
          -9 0 vmoveto
          255 70 -40 30 hlineto
          29 -13 31 -30 22 vhcurveto
          -92 66 rlineto
          312 -107 callsubr
          -234 vlineto
          -213 154 -29 -77 242 -175 rlineto
          80 -58 rmoveto
          46 -33 rlineto
          4 -4 5 -5 -8 vvcurveto
          -30 -55 80 vlineto
          endchar
        </CharString>
        <CharString name="lam_alef-ar.fina.2">
          56 0 vmoveto
          320 70 -93 hlineto
          -55 72 -19 callgsubr
        </CharString>
        <CharString name="lam_alef-ar.fina.3">
          56 0 vmoveto
          320 70 -93 hlineto
          -55 72 -34 callsubr
        </CharString>
        <CharString name="lam_alef-ar.fina.4">
          136 0 vmoveto
          400 70 -124 hlineto
          -24 22 -23 24 -19 24 -30 callgsubr
        </CharString>
        <CharString name="lam_alef-ar.fina.5">
          136 0 vmoveto
          400 70 -124 hlineto
          -24 22 -23 24 -19 24 -42 callsubr
        </CharString>
        <CharString name="m">
          96 -46 callgsubr
          -87 callgsubr
          -110 -99 callgsubr
          10 callgsubr
          -240 -99 callgsubr
          39 vlineto
          endchar
        </CharString>
        <CharString name="m.1">
          96 120 hmoveto
          80 90 hlineto
          -87 callgsubr
          -90 80 10 callgsubr
          -220 80 90 vlineto
          -87 callgsubr
          endchar
        </CharString>
        <CharString name="meem-ar">
          176 0 vmoveto
          300 23 callgsubr
          -102 hlineto
          -20 -17 5 15 -11 hvcurveto
          248 -20 rmoveto
          -9 callgsubr
        </CharString>
        <CharString name="meem-ar.1">
          16 0 vmoveto
          140 hlineto
          -53 callsubr
          -96 callgsubr
          -40 -5 -30 -35 -20 hvcurveto
          140 70 -106 callgsubr
        </CharString>
        <CharString name="meem-ar.2">
          14 138 -40 rmoveto
          -53 callsubr
          -52 -43 -36 -46 -5 hvcurveto
          -3 -24 -10 -20 -25 -14 rrcurveto
          52 hlineto
          -27 17 32 -13 37 hhcurveto
          -93 callsubr
        </CharString>
        <CharString name="meem-ar.fina">
          176 0 vmoveto
          440 -4 callsubr
          -102 hlineto
          -20 -17 5 15 -11 hvcurveto
          248 -20 rmoveto
          -9 callgsubr
        </CharString>
        <CharString name="meem-ar.fina.1">
          16 0 vmoveto
          280 70 -41 hlineto
          6 1 7 7 vvcurveto
          -100 callgsubr
          -40 -5 -30 -35 -20 vhcurveto
          140 70 -106 callgsubr
        </CharString>
        <CharString name="meem-ar.fina.2">
          14 138 -40 rmoveto
          43 30 13 27 16 hvcurveto
          51 70 -43 hlineto
          40 -10 -39 30 -48 hhcurveto
          -52 -43 -36 -46 -5 hvcurveto
          -3 -24 -10 -20 -25 -14 rrcurveto
          52 hlineto
          -27 17 32 -13 37 hhcurveto
          -93 callsubr
        </CharString>
        <CharString name="meem-ar.init">
          -20 hmoveto
          120 23 callgsubr
          -22 hlineto
          120 hmoveto
          -11 -9 9 11 11 9 9 -56 callsubr
          hvcurveto
          endchar
        </CharString>
        <CharString name="meem-ar.medi">
          -20 hmoveto
          260 -4 callsubr
          -22 hlineto
          120 hmoveto
          -11 -9 9 11 11 9 9 -56 callsubr
          hvcurveto
          endchar
        </CharString>
        <CharString name="meem-ar.medi.1">
          100 -40 rmoveto
          43 30 13 27 16 hvcurveto
          51 70 -43 hlineto
          40 -10 -39 30 -48 hhcurveto
          -48 -39 -30 -40 -11 hvcurveto
          -22 -70 31 hlineto
          -27 16 30 -13 43 hhcurveto
          70 vmoveto
          -11 -9 8 11 hvcurveto
          2 vlineto
          11 9 8 -56 callsubr
          vhcurveto
          endchar
        </CharString>
        <CharString name="n">
          5 callgsubr
          -78 callsubr
          vhcurveto
          -240 -99 callgsubr
          39 vlineto
          endchar
        </CharString>
        <CharString name="n.1">
          14 callgsubr
          -78 callsubr
          vhcurveto
          endchar
        </CharString>
        <CharString name="nine">
          -14 70 vmoveto
          -70 210 350 -210 -210 140 -70 vlineto
          210 vmoveto
          -70 -90 callsubr
        </CharString>
        <CharString name="nine-ar">
          -14 6 callgsubr
        </CharString>
        <CharString name="nine-ar.dnom">
          -77 12 callgsubr
        </CharString>
        <CharString name="nine-ar.numr">
          -77 -7 callsubr
        </CharString>
        <CharString name="nine-ar.osf">
          -14 -51 callsubr
          -210 140 -250 70 hlineto
          -70 390 rmoveto
          -70 -90 callsubr
        </CharString>
        <CharString name="nine-persian">
          -14 6 callgsubr
        </CharString>
        <CharString name="nine-persian.dnom">
          -77 12 callgsubr
        </CharString>
        <CharString name="nine-persian.numr">
          -77 -7 callsubr
        </CharString>
        <CharString name="nine.dnom">
          -77 49 vmoveto
          -49 147 245 -38 callgsubr
          vlineto
          147 vmoveto
          20 callsubr
        </CharString>
        <CharString name="nine.numr">
          -77 349 vmoveto
          -49 147 245 -38 callgsubr
          vlineto
          147 vmoveto
          20 callsubr
        </CharString>
        <CharString name="noon-ar">
          -74 -22 callsubr
          158 365 -104 callsubr
          endchar
        </CharString>
        <CharString name="noonAfrican-ar">
          -74 -25 callsubr
        </CharString>
        <CharString name="noonghunna-ar">
          -74 -25 callsubr
        </CharString>
        <CharString name="noonghunna-ar.fina">
          -74 -98 callsubr
          40 70 -50 vlineto
          -70 70 39 callgsubr
          endchar
        </CharString>
        <CharString name="o">
          100 hmoveto
          -53 callsubr
          -3 callgsubr
        </CharString>
        <CharString name="one">
          -154 -44 callgsubr
        </CharString>
        <CharString name="one-ar">
          -154 -44 callgsubr
        </CharString>
        <CharString name="one-ar.dnom">
          -175 -55 callsubr
        </CharString>
        <CharString name="one-ar.numr">
          -175 -43 callgsubr
        </CharString>
        <CharString name="one-ar.osf">
          -154 350 vmoveto
          -460 70 460 vlineto
          endchar
        </CharString>
        <CharString name="one-persian">
          -154 -44 callgsubr
        </CharString>
        <CharString name="one-persian.dnom">
          -175 -55 callsubr
        </CharString>
        <CharString name="one-persian.numr">
          -175 -43 callgsubr
        </CharString>
        <CharString name="one.dnom">
          -175 -55 callsubr
        </CharString>
        <CharString name="one.numr">
          -175 -43 callgsubr
        </CharString>
        <CharString name="p">
          90 vmoveto
          -11 callsubr
          -78 callsubr
          hvcurveto
          100 -103 callsubr
          -84 callsubr
        </CharString>
        <CharString name="p.1">
          100 180 rmoveto
          -65 -35 -30 -60 hvcurveto
          -11 callsubr
          hvcurveto
          -70 vmoveto
          -84 callsubr
        </CharString>
        <CharString name="parenleft">
          -102 122 560 rmoveto
          -154 -178 0 -256 109 -226 45 91 rcurveline
          -93 174 -3 230 96 165 rrcurveto
          endchar
        </CharString>
        <CharString name="parenright">
          -102 -100 vmoveto
          154 178 0 256 -109 226 -45 -91 rcurveline
          93 -174 3 -230 -96 -165 rrcurveto
          endchar
        </CharString>
        <CharString name="peh-ar">
          336 -99 callsubr
          210 -214 -74 callgsubr
        </CharString>
        <CharString name="percent">
          12 -45 callgsubr
          -88 -422 27 callsubr
          -229 402 27 callsubr
          31 -480 rmoveto
          38 39 -38 -39 vlineto
          -110 402 rmoveto
          38 39 -38 -39 vlineto
          endchar
        </CharString>
        <CharString name="percent-ar">
          12 -45 callgsubr
          -32 -440 rmoveto
          -70 70 70 vlineto
          -236 390 rmoveto
          -90 callsubr
        </CharString>
        <CharString name="period">
          -144 40 -83 callgsubr
          endchar
        </CharString>
        <CharString name="periodcentered">
          -144 40 120 -84 callgsubr
        </CharString>
        <CharString name="q">
          200 90 rmoveto
          130 -77 callsubr
          -5 -40 hhcurveto
          -55 -45 -30 -60 -98 callgsubr
          7 6 0 -1 7 hvcurveto
          -249 -99 callgsubr
          190 vlineto
          130 vlineto
          -100 20 rmoveto
          -84 callsubr
        </CharString>
        <CharString name="q.1">
          100 180 rmoveto
          -55 -45 -30 -60 -50 45 -40 55 7 6 0 -1 7 hvcurveto
          -249 -99 callgsubr
          190 vlineto
          130 vlineto
          60 -35 30 -65 vhcurveto
          -70 vmoveto
          -84 callsubr
        </CharString>
        <CharString name="qaf-ar">
          32 -24 callgsubr
          86 415 -15 callgsubr
        </CharString>
        <CharString name="qafAfrican-ar">
          32 -49 callsubr
        </CharString>
        <CharString name="qafDotabove-ar">
          32 -41 callsubr
          415 -104 callsubr
          17 -175 -106 callgsubr
        </CharString>
        <CharString name="qafDotless-ar">
          32 -49 callsubr
        </CharString>
        <CharString name="qafDotless-ar.fina">
          -8 100 hmoveto
          27 hlineto
          -127 -140 46 callgsubr
          -40 -70 rlineto
          299 -104 callgsubr
          -51 hlineto
          64 70 rlineto
          101 70 -57 hlineto
          1 6 0 7 7 vvcurveto
          -100 callgsubr
          -76 callsubr
          vhcurveto
          -93 callsubr
        </CharString>
        <CharString name="question">
          6 531 vmoveto
          -78 vlineto
          26 43 37 11 34 hhcurveto
          33 51 -12 -34 -23 -23 -26 -40 -19 hvcurveto
          -63 -31 -35 -39 -54 vvcurveto
          -28 10 -31 20 -37 vhcurveto
          -10 83 28 32 77 41 rrcurveto
          51 28 17 44 40 vvcurveto
          76 -62 60 -76 -31 -32 -10 -19 -29 vhcurveto
          77 -531 -84 callgsubr
        </CharString>
        <CharString name="question-ar">
          6 230 531 rmoveto
          19 -29 -32 10 -31 hhcurveto
          -76 -62 -60 -76 -40 17 -44 51 -28 hvcurveto
          77 -41 28 -32 -10 -83 rrcurveto
          20 37 10 31 28 vvcurveto
          54 -35 39 -63 31 vhcurveto
          -40 19 -23 26 23 vvcurveto
          34 51 12 33 34 37 -11 -26 43 vhcurveto
          -77 -453 -84 callgsubr
        </CharString>
        <CharString name="questiondown">
          6 230 -86 rmoveto
          78 vlineto
          -26 -43 -37 -11 -34 hhcurveto
          -33 -51 12 34 23 23 26 40 19 hvcurveto
          63 31 35 39 54 vvcurveto
          28 -10 31 -20 37 vhcurveto
          10 -83 -28 -32 -77 -41 rrcurveto
          -51 -28 -17 -44 -40 vvcurveto
          -76 62 -60 76 31 32 10 19 29 vhcurveto
          -77 531 1 callsubr
        </CharString>
        <CharString name="quotedbl">
          -104 22 callsubr
          120 hmoveto
          235 -40 -235 vlineto
          endchar
        </CharString>
        <CharString name="quotedblbase">
          -84 -100 -13 callgsubr
        </CharString>
        <CharString name="quotedblleft">
          -84 -3 callsubr
          65 hmoveto
          -88 -42 -12 -114 75 -79 25 50 rcurveline
          -57 54 5 82 52 49 rrcurveto
          endchar
        </CharString>
        <CharString name="quotedblright">
          -84 324 -13 callgsubr
        </CharString>
        <CharString name="quoteleft">
          -149 -3 callsubr
          endchar
        </CharString>
        <CharString name="quoteright">
          -149 324 -60 callgsubr
          endchar
        </CharString>
        <CharString name="quotesinglbase">
          -149 -100 -60 callgsubr
          endchar
        </CharString>
        <CharString name="quotesingle">
          -184 22 callsubr
          endchar
        </CharString>
        <CharString name="r">
          -47 -61 callsubr
          -240 -99 callgsubr
          41 callgsubr
        </CharString>
        <CharString name="r.1">
          -47 -61 callsubr
          -470 -99 callgsubr
          320 vlineto
          11 9 9 11 7 7 -4 -6 3 vhcurveto
          endchar
        </CharString>
        <CharString name="r.2">
          -47 -61 callsubr
          -220 80 41 callgsubr
        </CharString>
        <CharString name="reh-ar">
          48 -78 callgsubr
          endchar
        </CharString>
        <CharString name="reh-ar.1">
          48 -63 -103 callsubr
          -20 callsubr
        </CharString>
        <CharString name="reh-ar.2">
          136 0 vmoveto
          -4 callgsubr
          endchar
        </CharString>
        <CharString name="reh-ar.3">
          136 0 vmoveto
          -20 callsubr
        </CharString>
        <CharString name="reh-ar.fina">
          19 18 callsubr
          -5 30 -9 24 hvcurveto
          69 -50 vlineto
          -35 29 -51 20 -66 21 -80 -140 rcurveline
          45 callgsubr
        </CharString>
        <CharString name="reh-ar.fina.1">
          19 18 callsubr
          -4 29 -10 25 hvcurveto
          69 -61 vlineto
          -37 21 -53 10 -71 4 -60 -105 rcurveline
          45 callgsubr
        </CharString>
        <CharString name="rreh-ar">
          48 -78 callgsubr
          66 255 -70 callsubr
        </CharString>
        <CharString name="s">
          -26 71 vmoveto
          -48 9 41 -23 49 hhcurveto
          58 34 24 47 7 hvcurveto
          -146 39 rlineto
          144 hlineto
          40 -10 -40 30 -47 hhcurveto
          -48 -40 -30 -41 -10 hvcurveto
          141 -38 rlineto
          endchar
        </CharString>
        <CharString name="sad-ar">
          476 -27 callgsubr
          endchar
        </CharString>
        <CharString name="sad-ar.1">
          476 -98 callsubr
          529 vlineto
          -48 callgsubr
          -26 callsubr
        </CharString>
        <CharString name="sad-ar.fina">
          476 -98 callsubr
          590 70 -43 vlineto
          24 callsubr
          -436 hlineto
          -80 80 -40 -70 40 -40 rlineto
          -330 -12 callsubr
        </CharString>
        <CharString name="sad-ar.fina.1">
          476 -98 callsubr
          590 70 -43 vlineto
          24 callsubr
          -26 callsubr
        </CharString>
        <CharString name="sad-ar.init">
          406 46 hmoveto
          563 -104 callgsubr
          -5 callgsubr
        </CharString>
        <CharString name="sad-ar.medi">
          406 46 hmoveto
          624 -101 callgsubr
          -5 callgsubr
        </CharString>
        <CharString name="seen-ar">
          166 -91 callgsubr
          259 -87 callsubr
          -370 -105 callsubr
        </CharString>
        <CharString name="seen-ar.1">
          166 -91 callgsubr
          279 -75 callgsubr
          -390 -105 callsubr
        </CharString>
        <CharString name="seen-ar.2">
          166 -91 callgsubr
          299 -89 callsubr
          -410 -105 callsubr
        </CharString>
        <CharString name="seen-ar.3">
          166 -28 callgsubr
          endchar
        </CharString>
        <CharString name="seen-ar.4">
          166 -91 callgsubr
          239 -76 callgsubr
          -410 -105 callsubr
        </CharString>
        <CharString name="seen-ar.5">
          166 -91 callgsubr
          259 -88 callsubr
          -430 -105 callsubr
        </CharString>
        <CharString name="seen-ar.6">
          106 -98 callsubr
          159 vlineto
          16 callgsubr
          40 -40 rlineto
          -210 -105 callsubr
        </CharString>
        <CharString name="seen-ar.fina">
          166 -92 callgsubr
          160 -87 callsubr
          -370 -105 callsubr
        </CharString>
        <CharString name="seen-ar.fina.1">
          166 -92 callgsubr
          180 -75 callgsubr
          -390 -105 callsubr
        </CharString>
        <CharString name="seen-ar.fina.2">
          166 -92 callgsubr
          200 -89 callsubr
          -410 -105 callsubr
        </CharString>
        <CharString name="seen-ar.fina.3">
          166 -92 callgsubr
          120 -77 callgsubr
          -390 -88 callgsubr
          endchar
        </CharString>
        <CharString name="seen-ar.fina.4">
          166 -92 callgsubr
          140 -76 callgsubr
          -410 -105 callsubr
        </CharString>
        <CharString name="seen-ar.fina.5">
          166 -92 callgsubr
          160 -88 callsubr
          -430 -105 callsubr
        </CharString>
        <CharString name="seen-ar.init">
          96 -20 hmoveto
          319 hlineto
          -102 callgsubr
          259 -87 callsubr
          -120 -105 callgsubr
        </CharString>
        <CharString name="seen-ar.init.1">
          96 -20 hmoveto
          319 hlineto
          -102 callgsubr
          279 -75 callgsubr
          -140 -105 callgsubr
        </CharString>
        <CharString name="seen-ar.init.2">
          96 -20 hmoveto
          319 hlineto
          -102 callgsubr
          299 -89 callsubr
          -160 -105 callgsubr
        </CharString>
        <CharString name="seen-ar.init.3">
          96 -20 hmoveto
          319 hlineto
          -102 callgsubr
          219 -77 callgsubr
          -140 -105 callgsubr
        </CharString>
        <CharString name="seen-ar.init.4">
          96 -20 hmoveto
          319 hlineto
          -102 callgsubr
          239 -76 callgsubr
          -160 -105 callgsubr
        </CharString>
        <CharString name="seen-ar.init.5">
          96 -20 hmoveto
          319 hlineto
          -102 callgsubr
          259 -88 callsubr
          -180 -105 callgsubr
        </CharString>
        <CharString name="seen-ar.init.6">
          76 -20 hmoveto
          299 hlineto
          16 callgsubr
          rlineto
          -20 hlineto
          endchar
        </CharString>
        <CharString name="seen-ar.medi">
          96 -20 hmoveto
          380 70 hlineto
          -107 callgsubr
          160 -87 callsubr
          -120 -105 callgsubr
        </CharString>
        <CharString name="seen-ar.medi.1">
          96 -20 hmoveto
          380 70 hlineto
          -107 callgsubr
          180 -75 callgsubr
          -140 -105 callgsubr
        </CharString>
        <CharString name="seen-ar.medi.2">
          96 -20 hmoveto
          380 70 hlineto
          -107 callgsubr
          200 -89 callsubr
          -160 -105 callgsubr
        </CharString>
        <CharString name="seen-ar.medi.3">
          96 -20 hmoveto
          380 70 hlineto
          -107 callgsubr
          120 -77 callgsubr
          -140 -105 callgsubr
        </CharString>
        <CharString name="seen-ar.medi.4">
          96 -20 hmoveto
          380 70 hlineto
          -107 callgsubr
          140 -76 callgsubr
          -160 -105 callgsubr
        </CharString>
        <CharString name="seen-ar.medi.5">
          96 -20 hmoveto
          380 70 hlineto
          -107 callgsubr
          160 -88 callsubr
          -180 -105 callgsubr
        </CharString>
        <CharString name="seen-ar.medi.6">
          106 -20 hmoveto
          390 70 -40 hlineto
          -86 callgsubr
          -86 callgsubr
          -86 callgsubr
          rlineto
          -20 hlineto
          endchar
        </CharString>
        <CharString name="semicolon">
          -144 21 callgsubr
          21 295 -84 callgsubr
        </CharString>
        <CharString name="semicolon-ar">
          -144 20 callgsubr
          -22 -267 rmoveto
          -53 callgsubr
        </CharString>
        <CharString name="seven">
          -14 34 callgsubr
        </CharString>
        <CharString name="seven-ar">
          -14 2 callsubr
        </CharString>
        <CharString name="seven-ar.1">
          82 153 112 rmoveto
          -87 238 -66 -23 120 -327 rlineto
          66 hlineto
          120 327 -66 23 -87 -238 rlineto
          endchar
        </CharString>
        <CharString name="seven-ar.2">
          102 163 165 rmoveto
          -86 185 rlineto
          -77 hlineto
          163 -350 163 350 rlineto
          -78 hlineto
          -85 -185 rlineto
          endchar
        </CharString>
        <CharString name="seven-ar.dnom">
          -77 6 callsubr
        </CharString>
        <CharString name="seven-ar.numr">
          -77 5 callsubr
        </CharString>
        <CharString name="seven-persian">
          -14 2 callsubr
        </CharString>
        <CharString name="seven-persian.dnom">
          -77 6 callsubr
        </CharString>
        <CharString name="seven-persian.numr">
          -77 5 callsubr
        </CharString>
        <CharString name="seven-persian.urdu">
          -14 0 vmoveto
          210 70 -140 280 -70 hlineto
          endchar
        </CharString>
        <CharString name="seven.dnom">
          -77 147 245 rmoveto
          -147 -49 98 -196 49 hlineto
          endchar
        </CharString>
        <CharString name="seven.numr">
          -77 147 545 rmoveto
          -147 -49 98 -196 49 hlineto
          endchar
        </CharString>
        <CharString name="sheen-ar">
          166 -28 callgsubr
          250 460 rmoveto
          -1 callgsubr
        </CharString>
        <CharString name="six">
          -14 210 280 rmoveto
          70 -210 -350 210 210 -140 70 vlineto
          -210 vmoveto
          70 70 -70 -70 vlineto
          endchar
        </CharString>
        <CharString name="six-ar">
          -14 -63 callsubr
        </CharString>
        <CharString name="six-ar.1">
          -14 34 callgsubr
        </CharString>
        <CharString name="six-ar.dnom">
          -77 -54 callgsubr
        </CharString>
        <CharString name="six-ar.numr">
          -77 -62 callsubr
        </CharString>
        <CharString name="six-ar.osf">
          -14 25 callsubr
          -299 70 460 -70 -91 -70 hlineto
          endchar
        </CharString>
        <CharString name="six-ar.osf.1">
          -14 -51 callsubr
          -70 140 -390 70 hlineto
          endchar
        </CharString>
        <CharString name="six-persian">
          -14 -63 callsubr
        </CharString>
        <CharString name="six-persian.dnom">
          -77 -54 callgsubr
        </CharString>
        <CharString name="six-persian.numr">
          -77 -62 callsubr
        </CharString>
        <CharString name="six.dnom">
          -77 147 196 13 callgsubr
        </CharString>
        <CharString name="six.numr">
          -77 147 496 13 callgsubr
        </CharString>
        <CharString name="slash">
          12 -45 callgsubr
          endchar
        </CharString>
        <CharString name="space">
          -264 endchar
        </CharString>
        <CharString name="space.alt">
          -224 endchar
        </CharString>
        <CharString name="space.latn">
          -184 endchar
        </CharString>
        <CharString name="t">
          -64 80 80 rmoveto
          80 80 19 -80 81 -107 callsubr
          -61 -20 -19 20 -80 -5 callsubr
          endchar
        </CharString>
        <CharString name="tah-ar">
          486 -16 callgsubr
          endchar
        </CharString>
        <CharString name="tah-ar.fina">
          486 0 vmoveto
          750 -101 callgsubr
          -436 -52 callsubr
          -470 -40 vlineto
          120 hmoveto
          -59 callsubr
          endchar
        </CharString>
        <CharString name="tah-ar.init">
          406 -20 hmoveto
          629 -104 callgsubr
          -14 callsubr
        </CharString>
        <CharString name="tah-ar.init.short">
          406 -20 hmoveto
          629 -104 callgsubr
          -436 270 hlineto
          -95 callsubr
          -92 callsubr
        </CharString>
        <CharString name="tah-ar.init.short2">
          406 -20 hmoveto
          629 -104 callgsubr
          -436 160 hlineto
          -81 callgsubr
          -92 callsubr
        </CharString>
        <CharString name="tah-ar.medi">
          406 -20 hmoveto
          690 -101 callgsubr
          -14 callsubr
        </CharString>
        <CharString name="tah-ar.medi.short">
          406 17 callsubr
          270 hlineto
          -95 callsubr
          -92 callsubr
        </CharString>
        <CharString name="tah-ar.medi.short2">
          406 17 callsubr
          160 hlineto
          -81 callgsubr
          -92 callsubr
        </CharString>
        <CharString name="tahabove-ar">
          -264 0 vmoveto
          142 hlineto
          4 2 0 6 44 -21 9 -14 hvcurveto
          -63 56 hlineto
          -25 -6 rlineto
          -88 -13 vlineto
          38 hmoveto
          14 59 vlineto
          8 6 -6 -8 hvcurveto
          -73 hlineto
          endchar
        </CharString>
        <CharString name="tcheh-ar">
          376 -79 callgsubr
          192 -124 -74 callgsubr
        </CharString>
        <CharString name="teh-ar">
          336 -99 callsubr
          190 110 -36 callsubr
          endchar
        </CharString>
        <CharString name="tehMarbuta-ar">
          -31 callgsubr
        </CharString>
        <CharString name="tehMarbutagoal-ar">
          -31 callgsubr
        </CharString>
        <CharString name="thal-ar">
          336 -62 callgsubr
          240 -50 callgsubr
        </CharString>
        <CharString name="theh-ar">
          336 -99 callsubr
          167 110 -74 callgsubr
        </CharString>
        <CharString name="three">
          -14 210 hmoveto
          350 57 callgsubr
          -70 140 -70 -140 -70 vlineto
          endchar
        </CharString>
        <CharString name="three-ar">
          86 -69 callsubr
        </CharString>
        <CharString name="three-ar.1">
          86 8 callsubr
          210 -70 -67 callgsubr
          vlineto
          endchar
        </CharString>
        <CharString name="three-ar.dnom">
          -7 -13 callsubr
        </CharString>
        <CharString name="three-ar.numr">
          -7 4 callgsubr
        </CharString>
        <CharString name="three-ar.osf">
          86 -69 callsubr
        </CharString>
        <CharString name="three-ar.osf.1">
          86 27 callgsubr
          210 -70 -67 callgsubr
          vlineto
          endchar
        </CharString>
        <CharString name="three-persian">
          86 -69 callsubr
        </CharString>
        <CharString name="three-persian.dnom">
          -7 -13 callsubr
        </CharString>
        <CharString name="three-persian.numr">
          -7 4 callgsubr
        </CharString>
        <CharString name="three.dnom">
          -77 147 hmoveto
          245 23 callsubr
          -49 98 -49 -98 -49 vlineto
          endchar
        </CharString>
        <CharString name="three.numr">
          -77 147 300 rmoveto
          245 23 callsubr
          -49 98 -49 -98 -49 vlineto
          endchar
        </CharString>
        <CharString name="threedotsdownbelow-ar">
          -264 -19 callsubr
        </CharString>
        <CharString name="threedotsdownbelow-ar.alt1">
          -264 68 58 rmoveto
          11 callsubr
          -39 70 rmoveto
          11 callsubr
          82 hmoveto
          -16 -13 -13 -16 -16 13 -13 16 16 13 13 16 16 -13 13 -16 hvcurveto
          endchar
        </CharString>
        <CharString name="threedotsupabove-ar">
          -264 -19 callsubr
        </CharString>
        <CharString name="threedotsupabove-ar.alt1">
          -264 -28 callsubr
          -43 70 rmoveto
          -53 callgsubr
        </CharString>
        <CharString name="tteh-ar">
          336 -99 callsubr
          154 110 -70 callsubr
        </CharString>
        <CharString name="two">
          -14 210 hmoveto
          70 -140 70 140 210 57 callgsubr
          -210 vlineto
          endchar
        </CharString>
        <CharString name="two-ar">
          -14 -1 callsubr
        </CharString>
        <CharString name="two-ar.1">
          -14 350 vmoveto
          -350 70 280 140 70 vlineto
          endchar
        </CharString>
        <CharString name="two-ar.dnom">
          -77 26 callgsubr
        </CharString>
        <CharString name="two-ar.numr">
          -77 25 callgsubr
        </CharString>
        <CharString name="two-ar.osf">
          -14 55 callgsubr
          -460 70 299 140 161 vlineto
          endchar
        </CharString>
        <CharString name="two-ar.osf.1">
          -14 350 vmoveto
          -460 70 390 140 70 vlineto
          endchar
        </CharString>
        <CharString name="two-persian">
          -14 -1 callsubr
        </CharString>
        <CharString name="two-persian.dnom">
          -77 26 callgsubr
        </CharString>
        <CharString name="two-persian.numr">
          -77 25 callgsubr
        </CharString>
        <CharString name="two.dnom">
          -77 147 hmoveto
          32 callgsubr
        </CharString>
        <CharString name="two.numr">
          -77 147 300 rmoveto
          32 callgsubr
        </CharString>
        <CharString name="twodotshorizontalabove-ar">
          -264 17 hmoveto
          -60 callsubr
          endchar
        </CharString>
        <CharString name="twodotshorizontalabove-ar.alt1">
          -264 -30 callsubr
        </CharString>
        <CharString name="twodotshorizontalbelow-ar">
          -264 17 hmoveto
          -60 callsubr
          endchar
        </CharString>
        <CharString name="twodotshorizontalbelow-ar.alt1">
          -264 -30 callsubr
        </CharString>
        <CharString name="twodotsverticalabove-ar">
          -264 19 callgsubr
        </CharString>
        <CharString name="twodotsverticalabove-ar.alt1">
          -264 -14 callgsubr
        </CharString>
        <CharString name="twodotsverticalbelow-ar">
          -264 19 callgsubr
        </CharString>
        <CharString name="twodotsverticalbelow-ar.alt1">
          -264 -14 callgsubr
        </CharString>
        <CharString name="u">
          100 hmoveto
          40 40 -5 -35 20 hvcurveto
          240 2 callgsubr
          vhcurveto
          endchar
        </CharString>
        <CharString name="u.1">
          200 180 rmoveto
          -80 -90 hlineto
          54 callgsubr
          90 -80 -90 vlineto
          -98 callgsubr
          40 40 -5 -35 20 vhcurveto
          endchar
        </CharString>
        <CharString name="underscore">
          -134 -40 -90 rmoveto
          170 40 -170 hlineto
          endchar
        </CharString>
        <CharString name="v">
          -50 38 callgsubr
          107 230 rlineto
          endchar
        </CharString>
        <CharString name="veh-ar">
          349 -73 callsubr
          347 245 1 callgsubr
          -14 -165 -106 callgsubr
        </CharString>
        <CharString name="w">
          87 38 callgsubr
          69 147 68 -147 107 230 rlineto
          -77 hlineto
          -30 -65 -30 65 rlineto
          endchar
        </CharString>
        <CharString name="waw-ar">
          6 -50 -103 callsubr
          -39 callsubr
          128 90 -106 callgsubr
        </CharString>
        <CharString name="waw-ar.1">
          6 130 hmoveto
          -25 callgsubr
        </CharString>
        <CharString name="waw-ar.2">
          69 0 vmoveto
          243 hlineto
          31 9 14 24 5 hvcurveto
          4 17 1 22 26 vvcurveto
          36 -4 37 -6 25 vhcurveto
          56 -15 -38 33 -50 hhcurveto
          -55 -58 callgsubr
          -110 -97 callsubr
          128 90 -106 callgsubr
        </CharString>
        <CharString name="waw-ar.3">
          56 180 110 rmoveto
          -25 callgsubr
        </CharString>
        <CharString name="waw-ar.fina">
          16 130 hmoveto
          31 hlineto
          1 -6 0 -6 -6 vvcurveto
          -7 0 -8 -2 -7 vhcurveto
          -110 hlineto
          15 callsubr
          243 hlineto
          31 9 14 24 5 hvcurveto
          4 17 1 22 26 3 0 2 2 vvcurveto
          37 70 -43 hlineto
          -1 7 -2 7 -1 7 rrcurveto
          56 -15 -38 33 -50 hhcurveto
          -96 callgsubr
          -98 callgsubr
          hvcurveto
          -93 callsubr
        </CharString>
        <CharString name="waw-ar.fina.1">
          6 130 hmoveto
          20 -40 -100 hlineto
          31 callgsubr
          70 40 70 -40 20 vlineto
          -23 callsubr
        </CharString>
        <CharString name="wawHamzaabove-ar">
          6 -50 -103 callsubr
          -39 callsubr
          140 279 -63 callgsubr
          -12 -189 -106 callgsubr
        </CharString>
        <CharString name="x">
          -10 137 230 rmoveto
          -30 -65 -30 65 rlineto
          -77 hlineto
          53 -115 -53 -115 rlineto
          77 hlineto
          30 65 30 -65 rlineto
          77 hlineto
          -54 115 54 115 rlineto
          endchar
        </CharString>
        <CharString name="y">
          -82 callsubr
          410 2 callgsubr
          7 6 0 -1 7 vhcurveto
          -179 -81 callsubr
          endchar
        </CharString>
        <CharString name="y.1">
          -82 callsubr
          390 -80 -90 vlineto
          -11 -9 -9 -11 -11 -9 9 11 vhcurveto
          90 -80 -90 vlineto
          -98 callgsubr
          7 6 0 -1 7 vhcurveto
          -179 -81 callsubr
          endchar
        </CharString>
        <CharString name="yeh-ar">
          -17 -75 callsubr
        </CharString>
        <CharString name="yeh-farsi">
          -17 -75 callsubr
        </CharString>
        <CharString name="yehHamzaabove-ar">
          -17 -48 callsubr
          51 357 -100 callsubr
        </CharString>
        <CharString name="yehbarree-ar">
          -22 -44 callsubr
        </CharString>
        <CharString name="yehbarreeHamzaabove-ar">
          -22 -33 callgsubr
          -61 337 -100 callsubr
        </CharString>
        <CharString name="z">
          47 22 160 rmoveto
          153 hlineto
          -175 -160 rlineto
          257 hlineto
          -52 90 rlineto
          -15 -11 -17 -5 -20 hhcurveto
          -59 hlineto
          173 160 rlineto
          -227 hlineto
          endchar
        </CharString>
        <CharString name="zah-ar">
          486 -16 callgsubr
          230 -50 callgsubr
        </CharString>
        <CharString name="zain-ar">
          48 -78 callgsubr
          140 255 -104 callsubr
          endchar
        </CharString>
        <CharString name="zero">
          -14 -57 callgsubr
        </CharString>
        <CharString name="zero-ar">
          -154 210 vmoveto
          -90 callsubr
        </CharString>
        <CharString name="zero-ar.dnom">
          -175 26 callsubr
        </CharString>
        <CharString name="zero-ar.numr">
          -175 56 callgsubr
        </CharString>
        <CharString name="zero-persian">
          -154 210 vmoveto
          -90 callsubr
        </CharString>
        <CharString name="zero-persian.dnom">
          -175 26 callsubr
        </CharString>
        <CharString name="zero-persian.numr">
          -175 56 callgsubr
        </CharString>
        <CharString name="zero.dnom">
          -77 -65 callsubr
        </CharString>
        <CharString name="zero.numr">
          -77 -56 callgsubr
        </CharString>
      <CharString index="0">
        -22 -18 18 22 hvcurveto
        return
      </CharString>
      <CharString index="1">
        rmoveto
        -89 callgsubr
        endchar
      </CharString>
      <CharString index="2">
        -20 vlineto
        endchar
      </CharString>
      <CharString index="3">
        hlineto
        -48 callgsubr
        return
      </CharString>
      <CharString index="4">
        22 18 -18 -22 hvcurveto
        return
      </CharString>
      <CharString index="5">
        6 15 0 11 hvcurveto
        return
      </CharString>
      <CharString index="6">
        70 -43 hlineto
        95 -15 -58 15 -38 hhcurveto
        return
      </CharString>
      <CharString index="7">
        50 -45 40 -55 -96 callgsubr
        return
      </CharString>
      <CharString index="8">
        vlineto
        80 20 rlineto
        return
      </CharString>
      <CharString index="9">
        -50 45 -40 55 return
      </CharString>
      <CharString index="10">
        hlineto
        23 15 15 25 hvcurveto
        return
      </CharString>
      <CharString index="11">
        -55 -45 -40 -50 return
      </CharString>
      <CharString index="12">
        vmoveto
        -89 callgsubr
        endchar
      </CharString>
      <CharString index="13">
        -20 hmoveto
        260 70 -40 return
      </CharString>
      <CharString index="14">
        -22 -16 7 13 -10 hvcurveto
        return
      </CharString>
      <CharString index="15">
        -130 -250 rmoveto
        242 -97 callgsubr
        210 280 70 vlineto
        -107 callgsubr
        return
      </CharString>
      <CharString index="16">
        -130 -250 rmoveto
        242 -97 callgsubr
        210 219 vlineto
        -102 callgsubr
        return
      </CharString>
      <CharString index="17">
        -9 -5 5 4 -4 hvcurveto
        -64 64 rlineto
        -50 50 -44 -149 -49 vvcurveto
        return
      </CharString>
      <CharString index="18">
        -85 callgsubr
        11 9 9 11 -37 callgsubr
        hvcurveto
        return
      </CharString>
      <CharString index="19">
        -100 -69 callgsubr
        return
      </CharString>
      <CharString index="20">
        11 9 9 11 11 9 -9 -11 vhcurveto
        return
      </CharString>
      <CharString index="21">
        -70 70 -40 -70 return
      </CharString>
      <CharString index="22">
        -11 -9 9 11 return
      </CharString>
      <CharString index="23">
        rmoveto
        -66 callgsubr
        -22 -18 -18 -22 -22 18 -18 22 hvcurveto
        endchar
      </CharString>
      <CharString index="24">
        hmoveto
        -66 callgsubr
        -22 -18 -18 -22 -22 18 -18 22 hvcurveto
        return
      </CharString>
      <CharString index="25">
        -31 31 -17 17 9 47 14 -14 rlinecurve
        52 -52 rlineto
        -10 10 9 -5 12 hhcurveto
        return
      </CharString>
      <CharString index="26">
        -80 -20 rlineto
        -250 return
      </CharString>
      <CharString index="27">
        -23 callgsubr
        endchar
      </CharString>
      <CharString index="28">
        90 -110 rmoveto
        405 hlineto
        41 70 rlineto
        -436 hlineto
        -85 callgsubr
        11 9 9 11 hvcurveto
        459 hlineto
        41 70 rlineto
        -137 hlineto
        -58 -61 65 75 -61 hvcurveto
        -43 -70 19 -28 28 -29 15 -13 rlinecurve
        -212 hlineto
        -50 -40 -40 -50 -50 40 -40 50 hvcurveto
        return
      </CharString>
      <CharString index="29">
        -63 -110 rmoveto
        -4 callgsubr
        return
      </CharString>
      <CharString index="30">
        -42 callgsubr
        vlineto
        -47 callgsubr
        15 callgsubr
        return
      </CharString>
      <CharString index="31">
        vlineto
        -80 -20 rlineto
        -160 vlineto
        -107 callgsubr
        140 vlineto
        -80 -20 rlineto
        -160 vlineto
        -107 callgsubr
        140 vlineto
        -80 -20 rlineto
        return
      </CharString>
      <CharString index="32">
        vlineto
        -80 -20 rlineto
        -200 vlineto
        -107 callgsubr
        150 vlineto
        -80 -20 rlineto
        -170 15 callgsubr
        return
      </CharString>
      <CharString index="33">
        1 callgsubr
        endchar
      </CharString>
      <CharString index="34">
        rmoveto
        202 -97 callgsubr
        return
      </CharString>
      <CharString index="35">
        29 -7 callgsubr
        return
      </CharString>
      <CharString index="36">
        -70 callgsubr
        9 vlineto
        return
      </CharString>
      <CharString index="37">
        -20 hmoveto
        199 hlineto
        -102 callgsubr
        return
      </CharString>
      <CharString index="38">
        vlineto
        -20 -17 5 15 -11 hvcurveto
        return
      </CharString>
      <CharString index="39">
        -20 hmoveto
        62 -97 callgsubr
        return
      </CharString>
      <CharString index="40">
        -140 -50 140 return
      </CharString>
      <CharString index="41">
        22 18 18 22 22 -18 18 -22 return
      </CharString>
      <CharString index="42">
        hlineto
        -32 -22 3 23 -23 hvcurveto
        -82 callgsubr
        return
      </CharString>
      <CharString index="43">
        116 hmoveto
        463 -104 callgsubr
        -366 380 hlineto
        -80 -20 rlineto
        -430 436 vlineto
        -103 callgsubr
        -476 hlineto
        -40 -70 rlineto
        116 hlineto
        endchar
      </CharString>
      <CharString index="44">
        rmoveto
        -8 -5 7 8 9 7 9 15 5 7 -1 -3 7 hvcurveto
        18 -6 -14 11 -14 hhcurveto
        -32 -14 -33 -25 8 hvcurveto
        -11 hlineto
        -17 -29 rlineto
        108 hlineto
        17 29 rlineto
        -53 hlineto
        return
      </CharString>
      <CharString index="45">
        0 vmoveto
        539 -104 callgsubr
        -326 hlineto
        27 70 rlineto
        -3 hlineto
        -80 -140 rlineto
        372 hlineto
        -103 callgsubr
        -436 hlineto
        return
      </CharString>
      <CharString index="46">
        hlineto
        41 70 rlineto
        -139 hlineto
        -32 -53 47 31 29 65 38 20 12 hvcurveto
        -1 3 rlineto
        -53 -26 -93 -47 -48 vvcurveto
        -13 6 -13 16 -13 vhcurveto
        return
      </CharString>
      <CharString index="47">
        vmoveto
        30 callgsubr
        return
      </CharString>
      <CharString index="48">
        130 vlineto
        340 vlineto
        -80 -20 rlineto
        -359 vlineto
        -1 -7 -6 0 -7 -51 callgsubr
      </CharString>
      <CharString index="49">
        -45 -40 -50 -98 callgsubr
        10 10 1 3 10 hvcurveto
        -52 callgsubr
        return
      </CharString>
      <CharString index="50">
        350 vmoveto
        -350 210 350 vlineto
        -140 -280 rmoveto
        210 70 -210 -70 vlineto
        endchar
      </CharString>
      <CharString index="51">
        545 18 callgsubr
      </CharString>
      <CharString index="52">
        hlineto
        24 13 37 65 77 -19 111 -93 -56 -58 callgsubr
        return
      </CharString>
      <CharString index="53">
        49 245 rmoveto
        -49 -113 98 -132 49 245 -49 -64 -49 hlineto
        endchar
      </CharString>
      <CharString index="54">
        29 callgsubr
        endchar
      </CharString>
      <CharString index="55">
        2 -7 0 -8 -7 vvcurveto
        -7 0 -8 -2 -7 vhcurveto
        return
      </CharString>
      <CharString index="56">
        hhcurveto
        -3 callgsubr
      </CharString>
      <CharString index="57">
        185 rmoveto
        47 79 -17 10 -47 -79 rlineto
        endchar
      </CharString>
      <CharString index="58">
        131 -110 rmoveto
        260 hlineto
        41 70 rlineto
        return
      </CharString>
      <CharString index="59">
        6 15 0 21 139 -70 20 -44 hvcurveto
        return
      </CharString>
      <CharString index="60">
        -107 callgsubr
        120 vlineto
        -80 -20 rlineto
        -140 return
      </CharString>
      <CharString index="61">
        80 39 rmoveto
        51 vlineto
        -87 callgsubr
        -110 -99 callgsubr
        90 vlineto
        return
      </CharString>
      <CharString index="62">
        14 vmoveto
        37 -14 199 546 -38 14 rlineto
        return
      </CharString>
      <CharString index="63">
        350 vmoveto
        -350 70 350 vlineto
        endchar
      </CharString>
      <CharString index="64">
        545 vmoveto
        -245 49 245 vlineto
        endchar
      </CharString>
      <CharString index="65">
        vlineto
        -80 -20 rlineto
        -140 return
      </CharString>
      <CharString index="66">
        80 80 rmoveto
        480 vlineto
        -80 -20 rlineto
        return
      </CharString>
      <CharString index="67">
        -20 hmoveto
        57 43 30 40 hvcurveto
        return
      </CharString>
      <CharString index="68">
        49 49 -49 -49 vlineto
        return
      </CharString>
      <CharString index="69">
        -147 -147 98 -49 return
      </CharString>
      <CharString index="70">
        11 9 -9 -11 -11 -9 -9 -11 return
      </CharString>
      <CharString index="71">
        41 41 rcurveline
        13 13 16 18 23 vvcurveto
        325 vlineto
        -80 -20 rlineto
        -305 vlineto
        -16 -8 -18 -12 -21 vhcurveto
        -12 21 -8 18 16 vvcurveto
        return
      </CharString>
      <CharString index="72">
        -65 callgsubr
        308 -61 callgsubr
        -49 hlineto
        -90 callgsubr
        -85 57 -19 74 -1 vhcurveto
        endchar
      </CharString>
      <CharString index="73">
        vlineto
        36 vlineto
        -80 -20 rlineto
        -51 vlineto
        -7 -6 0 -7 hhcurveto
        -96 callgsubr
        -7 1 -7 1 -6 hvcurveto
        -52 -70 52 hlineto
        -1 -6 -1 -7 -7 vvcurveto
        -60 45 -30 55 vhcurveto
        180 vmoveto
        -89 callgsubr
        -110 -95 callgsubr
      </CharString>
      <CharString index="74">
        131 -110 rmoveto
        45 hlineto
        31 101 47 23 54 hvcurveto
        -213 -23 callgsubr
        return
      </CharString>
      <CharString index="75">
        0 vmoveto
        536 -55 callgsubr
        -390 hlineto
        -93 callgsubr
        408 90 -106 callgsubr
      </CharString>
      <CharString index="76">
        8 callgsubr
        -38 235 -15 callgsubr
      </CharString>
      <CharString index="77">
        -36 callgsubr
        325 vlineto
        -80 -20 rlineto
        -305 vlineto
        -18 16 -23 13 -13 vhcurveto
        41 -41 -42 -52 -62 -54 -46 -34 rlinecurve
        180 110 rmoveto
        40 -40 rlineto
        -80 hlineto
        40 40 rlineto
        endchar
      </CharString>
      <CharString index="78">
        90 -110 rmoveto
        445 hlineto
        41 70 rlineto
        -476 hlineto
        -85 callgsubr
        11 9 9 11 hvcurveto
        499 -61 callgsubr
        -286 hlineto
        -50 -40 -40 -50 -50 40 -40 50 hvcurveto
        return
      </CharString>
      <CharString index="79">
        -91 callgsubr
        219 -77 callgsubr
        -390 -88 callgsubr
        return
      </CharString>
      <CharString index="80">
        -130 -250 rmoveto
        242 -97 callgsubr
        210 529 vlineto
        -48 callgsubr
        -436 hlineto
        -80 80 -40 -70 40 -40 rlineto
        -330 -88 callgsubr
        228 230 rmoveto
        40 426 vlineto
        -103 callgsubr
        -466 hlineto
        return
      </CharString>
      <CharString index="81">
        199 -250 rmoveto
        43 46 8 35 76 hvcurveto
        -8 -49 -35 -4 -26 hhcurveto
        -83 -91 36 90 67 50 26 40 hvcurveto
        239 hlineto
        41 70 rlineto
        -137 hlineto
        -58 -61 65 75 -61 hvcurveto
        -43 -70 19 -28 28 -29 15 -13 rlinecurve
        -2 44 callgsubr
      </CharString>
      <CharString index="82">
        7 7 1 1 6 hvcurveto
        -42 -100 vlineto
        31 callgsubr
        160 vlineto
        -100 callgsubr
        -98 callgsubr
        vhcurveto
        70 -95 callgsubr
      </CharString>
      <CharString index="83">
        -64 -250 rmoveto
        299 -104 callgsubr
        -51 hlineto
        88 97 rlineto
        14 15 7 21 27 vvcurveto
        -100 callgsubr
        -60 45 -30 55 11 10 1 1 9 vhcurveto
        -130 -142 46 callgsubr
        return
      </CharString>
      <CharString index="84">
        hlineto
        -32 -12 3 23 -23 hvcurveto
        -82 callgsubr
        16 36 10 80 10 hvcurveto
        -15 -3 -14 -5 -9 hhcurveto
        -90 callgsubr
        -85 57 -19 74 -1 vhcurveto
        return
      </CharString>
      <CharString index="85">
        vlineto
        25 -13 16 -35 -32 -22 6 23 -23 vhcurveto
        -11 callgsubr
        -83 55 -20 72 -2 vhcurveto
        return
      </CharString>
      <CharString index="86">
        33 callgsubr
        -18 callgsubr
      </CharString>
      <CharString index="87">
        -100 callgsubr
        -98 callgsubr
        7 7 1 1 6 vhcurveto
        -42 -140 vlineto
        120 110 -106 callgsubr
      </CharString>
      <CharString index="88">
        68 68 rlineto
        350 vlineto
        -80 -20 rlineto
        -330 vlineto
        -20 -26 -20 26 rlineto
        350 vlineto
        -80 -20 rlineto
        -330 vlineto
        68 -68 rlineto
        32 -32 rmoveto
        40 -40 -17 -13 -46 0 -17 13 rlinecurve
        40 40 rlineto
        endchar
      </CharString>
      <CharString index="89">
        -65 -57 -32 -72 -18 4 -16 6 -12 hvcurveto
        -28 hlineto
        100 44 rmoveto
        20 2 17 16 21 hhcurveto
        -20 -2 -17 -16 -21 hhcurveto
        40 -44 rmoveto
        -21 -17 16 20 -2 hvcurveto
        21 17 -16 -20 2 hvcurveto
        endchar
      </CharString>
      <CharString index="90">
        hlineto
        -102 callgsubr
        189 vlineto
        -100 callgsubr
        -98 callgsubr
        vhcurveto
        70 -95 callgsubr
      </CharString>
      <CharString index="91">
        0 vmoveto
        689 -104 callgsubr
        -436 380 hlineto
        -80 -20 rlineto
        -470 -40 vlineto
        120 hmoveto
        40 426 vlineto
        -103 callgsubr
        -466 hlineto
        return
      </CharString>
      <CharString index="92">
        rmoveto
        47 79 -17 10 -47 -79 rlineto
        63 -10 rmoveto
        47 79 -17 10 -47 -79 rlineto
        9 -175 -106 callgsubr
      </CharString>
      <CharString index="93">
        -72 callgsubr
        80 vmoveto
        -53 callgsubr
      </CharString>
      <CharString index="94">
        -60 callgsubr
        65 hmoveto
        30 callgsubr
        endchar
      </CharString>
      <CharString index="95">
        130 vlineto
        -35 -20 -40 -5 -40 -51 callgsubr
      </CharString>
      <CharString index="96">
        -82 callgsubr
        67 70 -31 hlineto
        -90 callgsubr
        return
      </CharString>
      <CharString index="97">
        -41 callgsubr
        -460 vlineto
        -50 37 -30 40 30 31 16 34 22 vhcurveto
        -4 -9 -12 -3 -12 hhcurveto
        -24 -23 11 26 hvcurveto
        endchar
      </CharString>
      <CharString index="98">
        -89 callgsubr
        endchar
      </CharString>
      <CharString index="99">
        -107 callgsubr
        160 vlineto
        -80 -20 rlineto
        -180 return
      </CharString>
      <CharString index="100">
        hmoveto
        29 callgsubr
        return
      </CharString>
      <CharString index="101">
        130 vlineto
        -35 -20 -40 -5 -40 hhcurveto
        -96 callgsubr
        -60 45 -30 55 return
      </CharString>
      <CharString index="102">
        -436 70 hlineto
        -80 -20 rlineto
        -160 -20 -70 66 vlineto
        34 110 rmoveto
        426 hlineto
        -103 callgsubr
        -466 40 hlineto
        endchar
      </CharString>
      <CharString index="103">
        37 callgsubr
        -69 43 -147 47 hvcurveto
        -80 -140 rlineto
        172 hlineto
        -103 callgsubr
        -236 hlineto
        return
      </CharString>
      <CharString index="104">
        42 callgsubr
        hvcurveto
        70 -95 callgsubr
      </CharString>
      <CharString index="105">
        -20 hmoveto
        379 hlineto
        41 70 rlineto
        -177 hlineto
        -58 -61 65 75 -61 hvcurveto
        -43 -70 19 -28 28 -29 15 -13 rlinecurve
        -82 hlineto
        endchar
      </CharString>
      <CharString index="106">
        47 79 -17 10 -47 -79 rlineto
        63 -10 rmoveto
        47 79 -17 10 -47 -79 rlineto
        63 -10 rmoveto
        47 79 -17 10 -47 -79 rlineto
        endchar
      </CharString>
      <CharString index="107">
        hlineto
        -21 -12 17 19 21 16 23 37 13 16 -3 -7 18 hvcurveto
        45 -14 -35 25 -35 hhcurveto
        -77 -33 -78 -62 19 hvcurveto
        -25 return
      </CharString>
      <CharString index="108">
        rmoveto
        47 79 -17 10 -47 -79 rlineto
        63 -10 rmoveto
        47 79 -17 10 -47 -79 rlineto
        63 -10 rmoveto
        47 79 -17 10 -47 -79 rlineto
        return
      </CharString>
      <CharString index="109">
        vlineto
        -80 -20 rlineto
        -90 vlineto
        54 callgsubr
        110 vlineto
        -80 -20 rlineto
        -90 vlineto
        -98 callgsubr
        return
      </CharString>
      <CharString index="110">
        -360 hlineto
        62 111 14 132 -22 137 -80 -80 rcurveline
        25 -125 -11 -134 -52 -111 rrcurveto
        endchar
      </CharString>
      <CharString index="111">
        84 545 11 callgsubr
      </CharString>
      <CharString index="112">
        -46 callgsubr
        50 -45 40 -55 return
      </CharString>
      <CharString index="113">
        210 350 rmoveto
        -210 -210 140 -140 70 hlineto
        -70 280 rmoveto
        -70 -70 70 70 vlineto
        endchar
      </CharString>
      <CharString index="114">
        84 545 rmoveto
        -98 -35 98 -49 -245 217 49 -168 49 168 49 -84 49 84 49 vlineto
        endchar
      </CharString>
      <CharString index="115">
        100 hmoveto
        65 35 30 60 hvcurveto
        -6 callgsubr
        hvcurveto
        return
      </CharString>
      <CharString index="116">
        500 52 callgsubr
        -420 vlineto
        -93 callgsubr
        -52 -90 rlineto
        return
      </CharString>
      <CharString index="117">
        90 vlineto
        50 -45 40 -55 -22 -21 -7 -11 -17 vhcurveto
        11 -17 -21 7 -22 hhcurveto
        -40 -40 5 35 -20 hvcurveto
        return
      </CharString>
      <CharString index="118">
        rmoveto
        -98 -35 98 -49 -245 217 49 -168 49 168 147 -49 -98 -35 98 vlineto
        endchar
      </CharString>
      <CharString index="119">
        147 245 22 callgsubr
      </CharString>
      <CharString index="120">
        rmoveto
        49 -147 -245 147 147 -98 49 vlineto
        -147 vmoveto
        -39 callgsubr
        endchar
      </CharString>
      <CharString index="121">
        0 vmoveto
        80 90 hlineto
        -87 callgsubr
        -90 80 90 vlineto
        50 -45 40 -55 return
      </CharString>
      <CharString index="122">
        vlineto
        -107 callgsubr
        120 vlineto
        -80 -20 rlineto
        return
      </CharString>
      <CharString index="123">
        -102 callgsubr
        166 vlineto
        -80 -20 rlineto
        -87 vlineto
        -86 callgsubr
        -86 callgsubr
        return
      </CharString>
      <CharString index="124">
        43 callgsubr
        310 70 -240 70 240 return
      </CharString>
      <CharString index="125">
        vmoveto
        -245 147 245 vlineto
        -98 -196 rmoveto
        147 49 -147 -49 vlineto
        endchar
      </CharString>
      <CharString index="126">
        29 hmoveto
        47 79 -17 10 -47 -79 rlineto
        5 47 rmoveto
        47 79 -17 10 -47 -79 rlineto
        endchar
      </CharString>
      <CharString index="127">
        61 185 rmoveto
        -65 -35 -21 -69 62 -81 43 58 rcurveline
        -24 21 -25 64 30 42 rrcurveto
        return
      </CharString>
      <CharString index="128">
        19 -115 rmoveto
        65 35 21 69 -62 81 -43 -58 rcurveline
        24 -21 25 -64 -30 -42 rrcurveto
        return
      </CharString>
      <CharString index="129">
        rmoveto
        -147 -147 98 -98 49 hlineto
        -49 196 rmoveto
        -49 -49 49 49 vlineto
        endchar
      </CharString>
      <CharString index="130">
        hlineto
        65 35 30 60 -100 callgsubr
        -7 1 -7 1 -6 hvcurveto
        return
      </CharString>
      <CharString index="131">
        131 -110 rmoveto
        46 hlineto
        125 258 36 18 163 hvcurveto
        9 16 rlineto
        return
      </CharString>
      <CharString index="132">
        98 545 35 callgsubr
      </CharString>
      <CharString index="133">
        98 245 35 callgsubr
      </CharString>
      <CharString index="134">
        49 callgsubr
        -460 70 250 240 return
      </CharString>
      <CharString index="135">
        98 300 rmoveto
        49 245 -147 -245 49 196 49 hlineto
        endchar
      </CharString>
      <CharString index="136">
        16 13 13 16 16 -13 13 -16 58 callgsubr
        hvcurveto
        return
      </CharString>
      <CharString index="137">
        88 42 12 114 -75 79 -25 -50 rcurveline
        57 -54 -5 -82 -52 -49 rrcurveto
        return
      </CharString>
      <CharString index="138">
        -93 callgsubr
        -52 -90 rlineto
        242 -97 callgsubr
        return
      </CharString>
      <CharString index="139">
        49 -98 49 98 147 -147 -49 98 -49 -98 -147 vlineto
        endchar
      </CharString>
      <CharString index="140">
        35 vlineto
        -80 -20 rlineto
        -50 vlineto
        return
      </CharString>
      <CharString index="141">
        210 350 rmoveto
        -210 -70 140 -280 70 hlineto
        endchar
      </CharString>
      <CharString index="142">
        rmoveto
        -64 -49 64 -49 -245 49 132 98 113 vlineto
        endchar
      </CharString>
      <CharString index="143">
        98 hmoveto
        49 245 -147 -245 49 196 49 hlineto
        endchar
      </CharString>
      <CharString index="144">
        339 hlineto
        6 15 0 21 139 return
      </CharString>
      <CharString index="145">
        117 230 rmoveto
        -30 -65 -30 65 rlineto
        -77 hlineto
        107 -230 return
      </CharString>
      <CharString index="146">
        -40 -70 40 -40 rlineto
        -210 -88 callgsubr
        return
      </CharString>
      <CharString index="147">
        -40 20 47 callgsubr
        return
      </CharString>
      <CharString index="148">
        90 vlineto
        11 9 9 11 7 7 -4 -6 3 vhcurveto
        endchar
      </CharString>
      <CharString index="149">
        -96 callgsubr
        -60 45 -30 55 return
      </CharString>
      <CharString index="150">
        49 callgsubr
        -350 return
      </CharString>
      <CharString index="151">
        51 callgsubr
        hvcurveto
        endchar
      </CharString>
      <CharString index="152">
        172 hlineto
        -103 callgsubr
        -236 hlineto
        endchar
      </CharString>
      <CharString index="153">
        rlineto
        132 hlineto
        -103 callgsubr
        -196 hlineto
        return
      </CharString>
      <CharString index="154">
        rmoveto
        -10 10 20 -10 22 hhcurveto
        38 30 30 50 hvcurveto
        return
      </CharString>
      <CharString index="155">
        120 70 -30 vlineto
        -7 -3 3 7 hvcurveto
        endchar
      </CharString>
      <CharString index="156">
        120 350 rmoveto
        -67 callgsubr
        -70 return
      </CharString>
      <CharString index="157">
        131 -110 rmoveto
        405 hlineto
        41 70 rlineto
        return
      </CharString>
      <CharString index="158">
        hlineto
        -96 -54 -78 -82 -104 86 -56 113 return
      </CharString>
      <CharString index="159">
        110 rmoveto
        7 7 1 1 6 hvcurveto
        -42 return
      </CharString>
      <CharString index="160">
        vlineto
        -80 -20 rlineto
        -470 -105 callgsubr
      </CharString>
      <CharString index="161">
        -11 -9 -9 -11 -85 callgsubr
        vhcurveto
        return
      </CharString>
      <CharString index="162">
        140 350 rmoveto
        -91 -70 91 -70 return
      </CharString>
      <CharString index="163">
        447 vmoveto
        -49 49 49 vlineto
        endchar
      </CharString>
      <CharString index="164">
        -210 -70 140 -70 -140 return
      </CharString>
      <CharString index="165">
        -16 -13 -13 -16 -16 13 -13 16 return
      </CharString>
</ttFont>
